<?xml version="1.0" standalone="no"?>
<!DOCTYPE svg PUBLIC "-//W3C//DTD SVG 20010904//EN"
 "http://www.w3.org/TR/2001/REC-SVG-20010904/DTD/svg10.dtd">
<svg version="1.0" xmlns="http://www.w3.org/2000/svg"
 width="408.000000pt" height="612.000000pt" viewBox="0 0 408.000000 612.000000"
 preserveAspectRatio="xMidYMid meet">

<g transform="translate(0.000000,612.000000) scale(0.100000,-0.100000)"
fill="#000000" stroke="none">
<path d="M2940 3946 c0 -2 7 -7 16 -10 8 -3 12 -2 9 4 -6 10 -25 14 -25 6z"/>
<path d="M2695 3890 c-19 -7 -19 -7 0 -17 26 -12 47 -11 52 3 5 15 -26 23 -52
14z"/>
<path d="M2605 3881 c-29 -12 -52 -58 -39 -79 26 -40 64 -11 64 49 0 21 -1 39
-2 38 -2 0 -12 -4 -23 -8z"/>
<path d="M1292 3758 c-7 -7 -12 -8 -12 -3 0 5 -18 -9 -40 -30 -46 -45 -49 -55
-16 -55 16 0 27 7 31 20 3 11 12 20 20 20 7 0 18 14 24 30 11 33 10 35 -7 18z"/>
<path d="M2437 3750 c6 -21 20 -25 40 -12 8 5 9 13 3 22 -8 12 -10 11 -10 -5
-1 -18 -1 -19 -11 -2 -14 23 -28 22 -22 -3z"/>
<path d="M2500 3749 c0 -5 5 -7 10 -4 6 3 10 8 10 11 0 2 -4 4 -10 4 -5 0 -10
-5 -10 -11z"/>
<path d="M1781 3665 c28 -41 55 -75 59 -75 14 0 21 18 10 25 -5 3 -10 13 -10
21 0 19 80 18 135 -1 73 -26 47 -8 -69 49 -63 31 -129 56 -145 56 l-31 0 51
-75z"/>
<path d="M1335 3696 c-16 -12 -42 -26 -57 -30 -16 -3 -28 -13 -28 -20 0 -8 -4
-16 -10 -18 -5 -1 -1 -16 10 -33 18 -28 20 -28 20 -8 0 16 8 25 25 29 14 3 25
10 25 14 0 4 20 13 45 20 48 13 52 19 33 38 -10 10 -10 15 2 22 12 8 10 10
-10 10 -14 0 -38 -11 -55 -24z m-17 -48 c-3 -7 -13 -15 -24 -17 -16 -3 -17 -1
-5 13 16 19 34 21 29 4z"/>
<path d="M2219 3570 c11 -19 21 -55 23 -80 l3 -45 -155 -5 c-127 -5 -137 -6
-58 -8 110 -2 143 -12 153 -42 6 -18 12 -21 36 -16 16 3 29 1 29 -4 0 -12 -53
-40 -75 -40 -9 0 -19 -9 -22 -19 -3 -11 -18 -25 -34 -31 -16 -7 -29 -16 -29
-20 0 -3 -6 -7 -12 -7 -22 0 -118 -64 -118 -78 0 -7 -6 -15 -14 -18 -9 -4 -12
-14 -9 -26 4 -15 1 -21 -11 -21 -9 0 -16 -3 -16 -7 0 -5 -26 -8 -58 -7 -31 1
-64 -3 -73 -7 -11 -5 -21 -4 -27 4 -13 15 1 42 17 33 7 -5 11 8 11 38 0 50
-11 58 -33 26 -20 -28 -29 -15 -66 103 -44 138 -44 137 32 139 34 0 68 1 75 1
6 -1 12 4 12 9 0 6 -18 8 -40 6 -22 -2 -40 -1 -40 2 0 3 -82 5 -182 5 -101 0
-192 4 -203 9 -26 12 -92 16 -73 5 9 -6 4 -9 -16 -9 -21 0 -27 4 -22 15 3 9 0
15 -9 15 -8 0 -15 5 -15 10 0 6 9 10 20 10 18 0 19 3 10 20 -6 11 -15 18 -20
15 -5 -3 -13 3 -19 12 -8 14 -9 9 -4 -19 4 -30 1 -43 -19 -66 -23 -28 -24 -34
-17 -98 5 -38 15 -177 24 -309 8 -132 20 -268 25 -303 6 -34 15 -120 20 -190
5 -70 16 -192 24 -272 8 -80 25 -260 36 -400 11 -140 29 -336 40 -435 10 -99
24 -236 31 -305 6 -69 13 -127 15 -129 9 -10 3 127 -12 260 -15 147 -11 479 7
479 9 0 23 -105 15 -118 -3 -5 1 -18 8 -28 12 -16 12 -24 1 -50 -12 -29 -11
-34 11 -60 13 -16 23 -39 24 -51 0 -26 3 -27 28 -12 16 10 17 18 9 60 -12 59
1 104 14 49 10 -39 17 -132 19 -230 2 -96 21 -401 26 -428 4 -18 10 -22 36
-20 26 3 33 -1 38 -22 4 -17 8 -21 14 -12 14 23 26 12 14 -14 -8 -17 -9 -28
-1 -32 12 -8 13 -42 1 -42 -4 0 -8 8 -9 18 -1 9 -5 2 -9 -16 -9 -37 -2 -75 11
-66 5 3 13 -5 18 -18 6 -13 10 -17 10 -10 1 19 19 14 26 -7 8 -27 50 -32 74
-10 11 10 22 15 26 10 3 -5 -1 -11 -7 -14 -11 -3 -11 -9 0 -26 11 -19 10 -21
-13 -21 -34 0 -104 29 -129 54 -19 19 -21 19 -24 3 -4 -21 -32 -23 -32 -2 0 8
-5 15 -11 15 -10 0 -9 -59 3 -170 4 -39 48 -82 48 -46 0 7 10 25 21 40 18 22
20 32 11 51 -8 17 -7 28 4 44 23 32 35 16 30 -39 -4 -37 -2 -50 10 -54 9 -3
20 -3 26 0 6 4 14 1 18 -6 5 -8 13 -9 26 -2 29 15 107 23 123 13 11 -7 3 -12
-30 -22 -57 -15 -152 -21 -144 -9 4 6 -5 10 -19 10 -14 0 -26 -4 -26 -10 0 -5
-7 -10 -15 -10 -9 0 -12 -6 -9 -15 4 -9 1 -15 -7 -15 -10 0 -10 -3 -2 -11 10
-10 86 -25 353 -71 54 -9 100 -7 270 12 113 12 221 24 241 27 19 3 69 22 110
42 69 35 74 39 70 67 -1 16 -7 31 -12 34 -4 3 9 25 31 48 46 49 50 69 15 82
-25 10 -33 34 -15 45 6 4 8 11 4 16 -3 6 1 25 10 44 9 19 16 47 16 62 -1 15 5
51 13 78 8 28 18 80 21 115 3 36 10 99 16 140 5 41 12 104 14 140 3 36 8 89
12 119 6 48 5 54 -9 48 -22 -8 -22 9 0 22 10 5 23 31 30 58 11 45 11 43 6 -42
-3 -49 -6 -94 -7 -99 0 -5 4 -10 11 -13 7 -3 13 17 17 59 3 35 10 116 15 181
6 64 17 132 25 150 17 37 39 195 61 427 9 91 20 190 25 220 5 30 14 114 19
185 6 72 13 155 16 185 3 30 9 147 15 260 5 113 13 243 16 289 6 70 4 82 -7
75 -12 -6 -12 -5 0 9 11 14 12 23 2 44 -9 20 -14 24 -21 14 -5 -9 -18 -12 -35
-9 -14 3 -45 1 -68 -4 -23 -5 -53 -10 -67 -11 -20 -2 -24 -8 -25 -32 0 -29 -2
-30 -41 -27 -30 2 -43 -1 -47 -12 -4 -10 -15 -15 -29 -12 -13 1 -36 -1 -53 -6
-41 -12 -207 1 -202 16 5 15 159 38 224 33 42 -3 52 0 56 13 6 23 -40 26 -249
14 -84 -4 -103 -3 -113 10 -8 9 -18 16 -25 16 -6 0 -37 28 -69 63 -45 49 -53
55 -38 27z m-717 -145 c-40 -18 -142 -16 -160 2 -11 11 4 13 90 13 98 -1 101
-1 70 -15z m1491 3 c9 -27 -3 -37 -29 -26 -26 12 -31 24 -11 31 22 9 35 7 40
-5z m-79 -7 c3 -5 -13 -11 -37 -13 -46 -5 -60 -2 -52 13 8 12 82 12 89 0z m63
-86 c0 -8 -4 -12 -9 -9 -5 3 -6 10 -3 15 9 13 12 11 12 -6z m-1602 -5 c3 -5 1
-10 -4 -10 -6 0 -11 5 -11 10 0 6 2 10 4 10 3 0 8 -4 11 -10z m81 -66 c-3 -8
-11 -14 -18 -14 -10 0 -10 2 1 9 7 5 10 14 7 20 -4 6 -4 17 1 24 10 15 17 -17
9 -39z m13 -79 c48 -30 56 -42 41 -60 -8 -10 -8 -15 1 -21 8 -4 9 -3 5 4 -4 7
-2 12 3 12 6 0 11 -4 11 -9 0 -5 15 -16 33 -25 17 -9 40 -22 50 -30 22 -17 23
-66 1 -66 -8 0 -12 -5 -9 -10 4 -6 11 -8 16 -5 5 4 9 1 9 -4 0 -6 -7 -11 -15
-11 -8 0 -19 -9 -25 -19 -9 -17 -45 -32 -90 -36 -9 0 -21 -4 -28 -9 -7 -4 -12
-2 -12 4 0 6 -4 8 -10 5 -5 -3 -28 12 -50 34 l-41 40 20 37 c18 34 19 39 5 66
-17 34 -10 98 12 98 8 0 14 7 14 15 0 21 14 19 59 -10z m1191 -245 c0 -6 -20
-31 -44 -55 -33 -34 -51 -45 -75 -45 -20 0 -31 5 -31 14 0 8 -6 16 -12 19 -10
3 -10 7 -1 19 7 8 11 18 8 21 -3 4 -2 5 1 3 3 -2 14 4 25 15 14 14 33 19 74
19 32 0 55 -4 55 -10z m-275 -144 c12 -60 -29 -100 -77 -75 -67 35 -43 102 38
107 30 2 34 0 39 -32z m-691 -218 c-3 -4 5 -7 18 -5 15 1 23 -3 23 -13 0 -8 6
-20 14 -26 14 -11 13 -50 -2 -164 -8 -57 -70 -116 -112 -106 -20 5 -77 67 -75
82 1 3 -7 12 -17 21 -10 8 -11 11 -3 7 8 -4 -3 9 -25 28 -37 33 -39 37 -27 62
6 15 12 38 12 51 0 37 39 73 90 82 46 9 114 -3 104 -19z m-275 -605 c1 -64
-10 -79 -29 -44 -11 22 -14 204 -3 215 11 10 32 -100 32 -171z m111 153 c0 -3
-4 -8 -10 -11 -5 -3 -10 -1 -10 4 0 6 5 11 10 11 6 0 10 -2 10 -4z m80 -56 c0
-5 -4 -10 -10 -10 -5 0 -10 5 -10 10 0 6 5 10 10 10 6 0 10 -4 10 -10z m-163
-47 c-3 -10 -5 -2 -5 17 0 19 2 27 5 18 2 -10 2 -26 0 -35z m-107 -5 c0 -19
-2 -20 -10 -8 -13 19 -13 30 0 30 6 0 10 -10 10 -22z m218 -3 c7 -14 12 -32
12 -40 0 -8 7 -15 15 -15 8 0 15 -5 15 -12 0 -6 -3 -9 -6 -5 -8 8 -28 -12 -37
-37 -5 -12 -1 -23 10 -32 17 -13 17 -13 1 -14 -10 0 -18 5 -18 10 0 6 -10 8
-24 4 -15 -3 -25 -1 -29 9 -4 10 1 13 18 9 21 -4 24 1 30 34 3 22 7 46 9 55 2
11 -3 15 -19 11 -13 -2 -25 1 -29 6 -3 5 2 9 12 8 10 0 16 6 16 17 -2 25 11
21 24 -8z m67 -14 c3 -5 1 -12 -5 -16 -5 -3 -10 1 -10 9 0 18 6 21 15 7z
m-135 -11 c0 -5 -4 -10 -10 -10 -5 0 -10 5 -10 10 0 6 5 10 10 10 6 0 10 -4
10 -10z m-140 -10 c0 -5 -4 -10 -10 -10 -5 0 -10 5 -10 10 0 6 5 10 10 10 6 0
10 -4 10 -10z m107 -62 c-2 -13 -4 -5 -4 17 -1 22 1 32 4 23 2 -10 2 -28 0
-40z m51 44 c6 -5 11 -20 10 -34 -1 -15 -6 -24 -10 -22 -5 3 -6 9 -3 14 3 4
-2 13 -10 20 -26 22 -16 40 13 22z m136 -36 c-6 -15 -24 -23 -24 -11 0 8 24
34 28 30 1 -1 0 -10 -4 -19z m-42 -58 c-7 -7 -12 -8 -12 -2 0 6 3 14 7 17 3 4
9 5 12 2 2 -3 -1 -11 -7 -17z m-242 -19 c0 -6 -4 -7 -10 -4 -5 3 -10 11 -10
16 0 6 5 7 10 4 6 -3 10 -11 10 -16z m300 11 c0 -5 -5 -10 -11 -10 -5 0 -7 5
-4 10 3 6 8 10 11 10 2 0 4 -4 4 -10z m969 -96 c0 -42 -4 -86 -9 -98 -7 -16
-9 -11 -9 24 -1 48 10 150 15 150 2 0 3 -34 3 -76z m-1059 -9 c0 -5 -5 -3 -10
5 -5 8 -10 20 -10 25 0 6 5 3 10 -5 5 -8 10 -19 10 -25z m107 13 c-3 -8 -6 -5
-6 6 -1 11 2 17 5 13 3 -3 4 -12 1 -19z m-74 -118 c3 -11 1 -18 -3 -15 -5 3
-10 -1 -13 -7 -2 -7 -4 2 -5 20 -1 34 12 36 21 2z m37 -5 c0 -5 -5 -3 -10 5
-5 8 -10 20 -10 25 0 6 5 3 10 -5 5 -8 10 -19 10 -25z m-120 -14 c0 -23 -25
-10 -26 14 -2 21 0 22 12 10 8 -7 14 -18 14 -24z m49 -20 c0 -10 -2 -11 -6 -3
-7 19 -23 14 -23 -8 0 -10 9 -24 20 -30 24 -13 25 -20 4 -46 -15 -18 -15 -18
-11 4 4 17 1 22 -11 20 -22 -4 -28 37 -12 68 14 25 40 22 39 -5z m1048 7 c-3
-8 -6 -5 -6 6 -1 11 2 17 5 13 3 -3 4 -12 1 -19z m-1007 -46 c0 -15 -2 -15
-10 -2 -13 20 -13 33 0 25 6 -3 10 -14 10 -23z m90 9 c0 -5 -7 -12 -16 -15
-24 -9 -28 -7 -14 9 14 17 30 20 30 6z m-105 -81 c-10 -31 5 -46 19 -18 6 12
20 25 31 27 17 3 18 1 6 -13 -7 -9 -17 -13 -22 -10 -5 3 -9 -2 -9 -10 0 -20
17 -30 23 -14 3 7 6 -6 6 -29 1 -26 -4 -43 -10 -43 -6 0 -9 9 -6 20 3 11 2 18
-3 15 -4 -3 -10 2 -14 10 -3 8 -12 15 -20 15 -7 0 -16 6 -19 14 -7 19 3 56 15
56 5 0 7 -9 3 -20z m105 -15 c0 -5 -5 -3 -10 5 -5 8 -10 20 -10 25 0 6 5 3 10
-5 5 -8 10 -19 10 -25z m-180 6 c0 -5 3 -18 7 -28 6 -16 5 -16 -10 -4 -19 15
-23 41 -7 41 6 0 10 -4 10 -9z m205 -37 c-9 -6 -14 -17 -13 -24 2 -7 -3 -15
-9 -17 -8 -3 -13 4 -13 20 0 29 6 36 32 34 17 -1 18 -3 3 -13z m-120 -65 c-8
-13 25 -40 42 -34 6 2 14 -1 16 -8 3 -7 9 -1 14 12 8 20 11 22 16 7 5 -12 -3
-22 -26 -36 -42 -26 -63 -25 -71 3 -9 35 -7 67 5 67 5 0 7 -5 4 -11z m138 -24
c-3 -9 -8 -14 -10 -11 -3 3 -2 9 2 15 9 16 15 13 8 -4z m-106 -140 c3 -28 2
-28 -7 -7 -5 13 -14 21 -19 18 -5 -3 -12 1 -15 10 -4 12 0 15 17 12 16 -2 23
-10 24 -33z m28 15 c3 -5 1 -10 -4 -10 -6 0 -11 5 -11 10 0 6 2 10 4 10 3 0 8
-4 11 -10z m28 -27 c-7 -2 -19 -2 -25 0 -7 3 -2 5 12 5 14 0 19 -2 13 -5z
m-113 -253 c0 -5 -4 -10 -10 -10 -5 0 -10 5 -10 10 0 6 5 10 10 10 6 0 10 -4
10 -10z m18 -37 c-15 -18 -21 -9 -13 18 6 16 9 18 16 8 4 -8 3 -19 -3 -26z
m27 -2 c-3 -6 -11 -11 -17 -11 -6 0 -6 6 2 15 14 17 26 13 15 -4z m35 -26 c11
-13 10 -14 -4 -9 -9 3 -16 10 -16 15 0 13 6 11 20 -6z m31 -48 c-8 -8 -11 -3
-11 19 1 25 2 27 11 11 8 -14 8 -22 0 -30z m-31 -1 c0 -8 -6 -16 -14 -19 -10
-4 -12 0 -9 14 6 22 23 26 23 5z m80 -16 c0 -5 -4 -10 -10 -10 -5 0 -10 5 -10
10 0 6 5 10 10 10 6 0 10 -4 10 -10z m917 -42 c-3 -8 -6 -5 -6 6 -1 11 2 17 5
13 3 -3 4 -12 1 -19z m-967 -13 c0 -14 -2 -25 -4 -25 -2 0 -6 11 -8 25 -3 14
-1 25 3 25 5 0 9 -11 9 -25z m-36 -10 c3 -8 1 -15 -4 -15 -6 0 -10 7 -10 15 0
8 2 15 4 15 2 0 6 -7 10 -15z m1011 -4 c3 -5 1 -12 -5 -16 -5 -3 -10 1 -10 9
0 18 6 21 15 7z m-920 -11 c3 -6 -1 -7 -9 -4 -18 7 -21 14 -7 14 6 0 13 -4 16
-10z m-115 -32 c0 -4 -4 -8 -9 -8 -6 0 -12 4 -15 8 -3 5 1 9 9 9 8 0 15 -4 15
-9z m800 -8 c0 -5 -5 -10 -11 -10 -5 0 -7 5 -4 10 3 6 8 10 11 10 2 0 4 -4 4
-10z m-770 -10 c0 -5 -2 -10 -4 -10 -3 0 -8 5 -11 10 -3 6 -1 10 4 10 6 0 11
-4 11 -10z m170 -83 c0 -5 -4 -5 -10 -2 -5 3 -10 1 -10 -6 0 -7 -2 -10 -5 -8
-2 3 -2 15 2 28 4 17 8 19 14 9 5 -7 9 -17 9 -21z m696 -14 c-8 -28 -9 -106
-1 -125 5 -12 2 -17 -12 -17 -10 0 -38 -4 -63 -10 -47 -10 -90 -5 -90 10 0 5
21 9 48 9 68 0 74 7 66 68 -5 38 -11 52 -22 52 -21 0 -4 16 23 23 43 10 57 8
51 -10z m-366 -9 c0 -8 -4 -12 -10 -9 -5 3 -10 10 -10 16 0 5 5 9 10 9 6 0 10
-7 10 -16z m480 6 c0 -5 -5 -10 -11 -10 -5 0 -7 5 -4 10 3 6 8 10 11 10 2 0 4
-4 4 -10z m-908 -67 c8 -10 6 -13 -6 -13 -12 0 -16 9 -15 38 1 27 3 30 6 12 3
-14 10 -31 15 -37z m-175 25 c-3 -8 -6 -5 -6 6 -1 11 2 17 5 13 3 -3 4 -12 1
-19z m1010 -20 c-3 -8 -6 -5 -6 6 -1 11 2 17 5 13 3 -3 4 -12 1 -19z m-237 2
c0 -5 0 -12 0 -15 0 -3 -3 -6 -7 -6 -5 -1 -18 -5 -31 -10 -17 -7 -24 -5 -29 7
-8 22 5 30 27 16 17 -10 20 -10 20 3 0 8 5 15 10 15 6 0 10 -4 10 -10z m80 0
c0 -5 -4 -10 -10 -10 -5 0 -10 5 -10 10 0 6 5 10 10 10 6 0 10 -4 10 -10z
m-310 -10 c0 -5 -7 -10 -16 -10 -8 0 -12 5 -9 10 3 6 10 10 16 10 5 0 9 -4 9
-10z m97 -22 c-3 -8 -6 -5 -6 6 -1 11 2 17 5 13 3 -3 4 -12 1 -19z m-213 -4
c22 -8 20 -23 -1 -19 -10 2 -21 4 -25 4 -11 1 -10 21 1 21 5 0 16 -3 25 -6z
m115 -28 c11 -9 9 -12 -10 -17 -44 -13 -59 -10 -59 10 0 31 34 34 69 7z m192
-8 c-30 -23 -41 -23 -41 2 0 18 3 19 20 10 16 -9 20 -8 20 5 0 10 5 13 12 9 8
-5 4 -13 -11 -26z m47 -16 c2 -7 -5 -12 -17 -12 -14 0 -19 5 -14 15 6 17 25
15 31 -3z m-367 -17 c33 -14 33 -14 7 -15 -34 0 -59 10 -52 21 7 11 6 12 45
-6z"/>
<path d="M2041 3580 c-65 -10 -78 -21 -64 -53 13 -29 73 -37 73 -10 0 12 3 13
13 5 19 -16 54 -4 60 20 4 14 11 19 21 15 9 -4 16 -2 16 3 0 6 -9 10 -19 10
-11 0 -23 5 -26 10 -3 6 -9 9 -13 9 -4 -1 -31 -5 -61 -9z"/>
<path d="M1643 3563 c-7 -2 -12 -14 -12 -26 1 -17 2 -18 6 -5 3 10 21 21 46
26 l42 10 -35 0 c-19 0 -41 -2 -47 -5z"/>
<path d="M1873 3433 c9 -2 23 -2 30 0 6 3 -1 5 -18 5 -16 0 -22 -2 -12 -5z"/>
<path d="M1372 950 c0 -19 2 -27 5 -17 2 9 2 25 0 35 -3 9 -5 1 -5 -18z"/>
<path d="M1521 806 c0 -30 3 -57 8 -60 4 -3 6 -16 4 -30 -3 -13 0 -26 5 -30
11 -7 26 59 17 75 -4 5 -1 16 5 24 9 11 9 15 1 15 -18 0 -13 18 7 23 13 4 11
5 -5 6 -13 1 -23 7 -23 16 0 8 -4 15 -9 15 -4 0 -9 -25 -10 -54z m16 -8 c-3
-8 -6 -5 -6 6 -1 11 2 17 5 13 3 -3 4 -12 1 -19z"/>
<path d="M1409 713 c-18 -21 -13 -50 18 -95 28 -41 44 -49 36 -19 -3 10 0 22
6 25 16 10 13 52 -4 70 -8 8 -15 19 -15 25 0 17 -26 13 -41 -6z m47 -80 c-10
-10 -19 5 -10 18 6 11 8 11 12 0 2 -7 1 -15 -2 -18z"/>
<path d="M2686 494 c-6 -15 -4 -15 11 -3 10 7 20 15 22 16 2 2 -3 3 -11 3 -9
0 -19 -7 -22 -16z"/>
</g>
</svg>
