<?xml version="1.0" standalone="no"?>
<!DOCTYPE svg PUBLIC "-//W3C//DTD SVG 20010904//EN"
 "http://www.w3.org/TR/2001/REC-SVG-20010904/DTD/svg10.dtd">
<svg version="1.0" xmlns="http://www.w3.org/2000/svg"
 width="612.000000pt" height="408.000000pt" viewBox="0 0 612.000000 408.000000"
 preserveAspectRatio="xMidYMid meet">

<g transform="translate(0.000000,408.000000) scale(0.100000,-0.100000)"
fill="#000000" stroke="none">
<path d="M1998 3913 c6 -2 18 -2 25 0 6 3 1 5 -13 5 -14 0 -19 -2 -12 -5z"/>
<path d="M2390 3850 c0 -5 6 -10 14 -10 8 0 18 5 21 10 3 6 -3 10 -14 10 -12
0 -21 -4 -21 -10z"/>
<path d="M3468 3853 c12 -2 32 -2 45 0 12 2 2 4 -23 4 -25 0 -35 -2 -22 -4z"/>
<path d="M3123 3833 c9 -2 23 -2 30 0 6 3 -1 5 -18 5 -16 0 -22 -2 -12 -5z"/>
<path d="M1968 3773 c7 -3 16 -2 19 1 4 3 -2 6 -13 5 -11 0 -14 -3 -6 -6z"/>
<path d="M2228 3753 c7 -3 16 -2 19 1 4 3 -2 6 -13 5 -11 0 -14 -3 -6 -6z"/>
<path d="M2298 3728 c-41 -11 -52 -27 -15 -22 78 11 97 16 92 25 -7 11 -27 10
-77 -3z"/>
<path d="M3590 3716 c0 -9 50 -12 62 -5 8 6 -1 9 -24 9 -21 0 -38 -2 -38 -4z"/>
<path d="M2760 3706 c0 -2 9 -6 20 -9 11 -3 20 -1 20 4 0 5 -9 9 -20 9 -11 0
-20 -2 -20 -4z"/>
<path d="M2822 3703 c-17 -7 -5 -23 19 -23 10 0 19 7 19 15 0 15 -14 18 -38 8z"/>
<path d="M2065 3690 l-30 -8 33 -1 c17 0 32 4 32 9 0 6 -1 9 -2 9 -2 -1 -16
-5 -33 -9z"/>
<path d="M2626 3687 c3 -10 9 -15 12 -12 3 3 0 11 -7 18 -10 9 -11 8 -5 -6z"/>
<path d="M2531 3675 c-25 -14 -25 -14 10 -13 19 1 28 3 21 5 -6 3 -10 9 -6 14
6 11 6 11 -25 -6z"/>
<path d="M2028 3643 c7 -3 16 -2 19 1 4 3 -2 6 -13 5 -11 0 -14 -3 -6 -6z"/>
<path d="M1953 3633 c9 -2 25 -2 35 0 9 3 1 5 -18 5 -19 0 -27 -2 -17 -5z"/>
<path d="M2550 3620 c-11 -7 -4 -10 25 -10 29 0 36 3 25 10 -8 5 -19 10 -25
10 -5 0 -17 -5 -25 -10z"/>
<path d="M3208 3573 c7 -3 16 -2 19 1 4 3 -2 6 -13 5 -11 0 -14 -3 -6 -6z"/>
<path d="M4148 3553 c6 -2 18 -2 25 0 6 3 1 5 -13 5 -14 0 -19 -2 -12 -5z"/>
<path d="M2990 3546 c0 -2 7 -7 16 -10 8 -3 12 -2 9 4 -6 10 -25 14 -25 6z"/>
<path d="M2965 3519 c-4 -6 -4 -13 -1 -16 3 -4 6 -1 6 6 0 7 5 9 12 5 7 -4 8
-3 4 4 -9 15 -13 15 -21 1z"/>
<path d="M2918 3481 c-8 -13 -16 -17 -23 -11 -8 6 -12 5 -12 -4 0 -9 12 -14
31 -14 17 0 38 -2 46 -4 9 -2 15 4 15 17 0 11 -4 20 -10 20 -5 0 -15 4 -22 8
-8 5 -17 0 -25 -12z m25 -5 c4 -10 1 -13 -8 -9 -8 3 -12 9 -9 14 7 12 11 11
17 -5z"/>
<path d="M2999 3498 c-1 -2 -3 -13 -4 -25 -2 -16 2 -20 13 -15 10 3 11 7 5 9
-7 3 -9 11 -6 19 4 11 -3 22 -8 12z"/>
<path d="M1830 3459 c0 -5 -4 -8 -8 -5 -5 3 -19 -13 -30 -36 -18 -32 -19 -39
-6 -34 8 3 22 6 30 6 9 0 12 5 9 10 -3 6 -1 10 5 10 7 0 10 6 7 14 -4 10 0 14
12 11 14 -3 17 1 14 16 -6 20 -33 27 -33 8z"/>
<path d="M2662 3428 c8 -23 91 -58 134 -56 35 1 40 5 36 20 -2 10 -9 21 -15
25 -5 3 -7 2 -4 -3 3 -6 2 -16 -3 -23 -12 -20 -73 -6 -109 24 -32 27 -45 32
-39 13z"/>
<path d="M2264 3409 c-11 -18 13 -34 31 -19 8 7 15 16 15 21 0 13 -38 11 -46
-2z"/>
<path d="M1690 3400 c-9 -6 -10 -10 -3 -10 6 0 15 5 18 10 8 12 4 12 -15 0z"/>
<path d="M2995 3380 c-3 -5 -2 -10 4 -10 5 0 13 5 16 10 3 6 2 10 -4 10 -5 0
-13 -4 -16 -10z"/>
<path d="M2100 3354 c-8 -14 -27 -32 -42 -40 -29 -15 -38 -34 -16 -34 7 0 32
7 56 17 39 15 43 19 37 42 -10 40 -20 44 -35 15z"/>
<path d="M2528 3363 c-26 -31 -30 -53 -9 -53 14 0 18 5 14 19 -5 20 19 31 97
44 14 2 0 5 -31 6 -42 1 -60 -3 -71 -16z"/>
<path d="M1760 3321 c-13 -21 -33 -45 -47 -52 -20 -11 -21 -14 -8 -21 8 -5 20
-6 25 -3 6 3 10 1 10 -5 0 -6 16 4 35 23 37 36 44 67 21 86 -12 10 -18 4 -36
-28z"/>
<path d="M2868 3353 c7 -3 16 -2 19 1 4 3 -2 6 -13 5 -11 0 -14 -3 -6 -6z"/>
<path d="M2673 3338 c4 -12 1 -18 -8 -18 -8 0 -15 -4 -15 -9 0 -15 18 -23 25
-11 4 6 10 8 15 5 20 -12 18 14 -2 31 -19 17 -21 17 -15 2z"/>
<path d="M3034 3335 c-18 -12 -26 -15 -40 -15 -4 0 -1 -7 6 -15 9 -11 9 -15 1
-15 -7 0 -9 -5 -6 -10 7 -12 -12 -40 -27 -40 -6 0 -8 6 -5 13 6 16 -32 20 -50
6 -6 -6 -17 -8 -22 -4 -7 3 -8 0 -5 -9 7 -18 -7 -21 -23 -5 -7 7 -16 3 -31
-15 -11 -14 -29 -26 -40 -26 -12 0 -24 -4 -27 -10 -3 -5 -14 -10 -23 -10 -9 0
-37 -23 -61 -50 -24 -27 -48 -47 -52 -44 -4 2 -10 0 -14 -6 -3 -5 -11 -10 -16
-10 -6 0 -8 4 -4 9 3 5 -9 11 -26 13 -22 2 -33 9 -35 21 -1 9 2 17 8 17 6 0 8
-7 4 -15 -3 -8 -1 -15 4 -15 6 0 10 7 10 15 0 10 11 15 35 15 24 0 37 6 45 20
8 15 8 20 -3 20 -8 0 -13 10 -13 23 1 20 -4 22 -45 23 -25 0 -52 5 -59 9 -8 5
-18 2 -26 -9 -10 -14 -9 -22 2 -44 17 -33 18 -54 3 -69 -17 -17 -75 22 -88 58
-13 37 -25 38 -18 1 7 -34 2 -41 -43 -70 -32 -21 -33 -23 -10 -20 29 3 53 -9
45 -23 -4 -5 -16 -9 -28 -9 -16 0 -18 -3 -8 -9 11 -7 11 -9 0 -14 -11 -5 -10
-8 4 -17 23 -15 22 -34 -1 -28 -34 9 -20 -23 19 -42 32 -17 38 -17 43 -4 3 8
2 12 -3 9 -22 -13 -18 13 4 29 14 10 22 22 20 27 -3 4 -1 10 4 13 5 3 11 -1
15 -9 3 -8 1 -17 -4 -20 -6 -4 -10 -13 -10 -21 0 -8 4 -12 10 -9 6 4 7 -1 3
-10 -4 -13 0 -16 18 -15 39 3 51 1 44 -10 -3 -5 -2 -10 4 -10 5 0 13 5 16 10
4 6 10 8 15 5 5 -3 11 -1 15 5 3 5 15 10 26 10 14 0 19 7 19 25 0 14 5 25 10
25 6 0 10 -9 10 -20 0 -11 5 -20 10 -20 6 0 8 11 4 27 -6 21 -4 25 9 20 8 -3
21 0 27 8 8 10 18 11 35 5 13 -5 26 -7 29 -4 3 2 4 1 1 -3 -3 -3 0 -13 7 -20
9 -11 9 -17 -3 -24 -11 -7 -10 -9 7 -9 11 0 38 -9 59 -19 22 -10 46 -16 54
-13 10 4 11 7 3 10 -7 2 -10 8 -6 13 3 5 0 9 -5 9 -6 0 -11 7 -11 16 0 8 4 13
9 10 5 -4 12 0 14 6 3 7 6 1 6 -14 1 -15 10 -33 21 -41 11 -8 17 -17 13 -20
-3 -4 3 -7 15 -7 11 0 22 -7 24 -16 2 -11 12 -7 42 20 36 33 38 34 32 11 -5
-18 -1 -27 14 -35 14 -8 20 -8 20 0 0 6 10 11 23 10 44 -4 56 0 54 19 -1 13
-7 17 -22 14 -14 -3 -16 -2 -7 4 7 5 10 17 6 26 -5 13 -2 16 10 11 8 -3 18
-14 21 -25 4 -10 15 -19 26 -19 10 0 19 -4 19 -10 0 -5 -7 -7 -16 -3 -12 4
-15 2 -12 -8 14 -41 70 13 67 64 -1 17 -2 18 -6 4 -2 -9 -9 -15 -14 -11 -5 3
-8 0 -7 -7 2 -6 -3 -14 -11 -17 -9 -3 -11 0 -7 7 4 6 4 10 -1 9 -16 -5 -51 26
-45 40 4 12 1 12 -16 3 -12 -7 -22 -8 -22 -3 0 4 15 13 33 20 33 12 47 42 20
42 -7 0 -13 5 -13 10 0 19 51 10 75 -14 16 -16 31 -22 45 -19 11 3 32 0 48 -6
18 -7 37 -8 57 -2 l30 9 -27 1 c-25 1 -52 21 -29 21 19 0 12 18 -10 25 -12 4
-17 10 -12 14 5 3 15 15 21 26 11 19 11 19 12 -5 0 -17 8 -29 25 -37 24 -11
25 -10 18 15 -5 24 -4 25 9 14 13 -10 19 -10 34 5 21 21 17 20 35 8 8 -5 4 0
-10 12 -14 12 -28 20 -31 18 -4 -2 -15 10 -25 27 -16 28 -19 30 -25 13 -5 -13
-9 -15 -14 -6 -4 6 -2 18 4 26 8 10 9 15 2 15 -6 0 -14 -4 -17 -10 -8 -13 -25
-13 -25 1 0 5 4 8 9 5 5 -3 11 0 14 7 3 9 -8 11 -41 8 -35 -2 -43 0 -37 10 6
10 5 11 -4 3 -6 -5 -13 -28 -14 -50 -5 -49 -15 -74 -32 -74 -22 0 -28 20 -12
38 7 9 17 24 20 34 7 19 -18 57 -30 44 -4 -5 -2 -11 5 -13 6 -3 12 -11 12 -20
0 -22 -25 -42 -40 -33 -15 10 -3 33 13 24 7 -3 3 2 -8 11 -11 9 -20 28 -21 43
0 15 -4 34 -8 41 -7 10 -3 12 13 6 33 -10 25 2 -9 14 -18 6 -28 6 -25 1 4 -6
3 -16 -1 -22 -5 -7 -7 -27 -5 -44 1 -18 -2 -35 -8 -38 -18 -12 -90 32 -97 59
-13 52 21 79 67 53 26 -15 27 -15 32 4 3 11 3 17 0 14 -4 -3 -13 0 -21 7 -13
9 -14 9 -8 0 4 -7 2 -13 -3 -13 -6 0 -11 4 -11 9 0 16 -27 20 -46 6z m-289
-174 c3 -5 1 -12 -5 -16 -5 -3 -10 1 -10 9 0 18 6 21 15 7z m200 -51 c-3 -5
-10 -10 -16 -10 -5 0 -9 5 -9 10 0 6 7 10 16 10 8 0 12 -4 9 -10z m476 -13
c-10 -9 -11 -8 -5 6 3 10 9 15 12 12 3 -3 0 -11 -7 -18z m-921 -37 c-11 -7
-11 -10 -2 -10 7 0 11 -4 7 -10 -3 -5 -12 -7 -20 -3 -10 3 -15 -1 -16 -13 -1
-14 -3 -12 -8 6 -10 33 -5 40 27 40 21 0 24 -2 12 -10z m623 -4 c4 -10 1 -13
-8 -9 -8 3 -12 9 -9 14 7 12 11 11 17 -5z m-683 0 c0 -3 -4 -8 -10 -11 -5 -3
-10 -1 -10 4 0 6 5 11 10 11 6 0 10 -2 10 -4z m294 -21 c-4 -8 -10 -12 -15 -9
-11 6 -2 24 11 24 5 0 7 -7 4 -15z m60 -1 c4 -10 1 -14 -6 -12 -15 5 -23 28
-10 28 5 0 13 -7 16 -16z m224 -8 c27 5 30 4 26 -13 -4 -15 -12 -19 -30 -15
-14 2 -24 0 -24 -7 0 -6 -9 -11 -20 -11 -18 0 -19 3 -10 21 7 11 9 28 6 37 -5
15 -4 15 8 -1 10 -12 21 -15 44 -11z m-328 4 c-20 -13 -33 -13 -25 0 3 6 14
10 23 10 15 0 15 -2 2 -10z m-109 -9 c-9 -6 -10 -11 -2 -15 6 -4 11 -12 11
-19 0 -7 -7 -5 -16 5 -17 17 -12 38 9 38 8 0 8 -3 -2 -9z m69 5 c0 -3 -4 -8
-10 -11 -5 -3 -10 -1 -10 4 0 6 5 11 10 11 6 0 10 -2 10 -4z m195 -6 c-3 -5
12 -7 38 -4 38 5 43 3 44 -15 1 -12 -2 -21 -8 -21 -5 0 -9 4 -9 8 0 11 -69 5
-84 -8 -7 -5 -16 -7 -19 -3 -4 3 -7 0 -7 -7 0 -20 -14 -2 -15 20 -2 18 0 19
16 4 11 -10 19 -12 24 -5 3 6 1 11 -4 11 -6 0 -11 5 -11 11 0 5 4 8 9 4 5 -3
12 -1 16 5 3 5 8 10 11 10 3 0 3 -4 -1 -10z m-435 -15 c0 -8 -9 -15 -20 -15
-22 0 -27 15 -7 23 21 9 27 7 27 -8z m680 -28 c0 -7 -13 -18 -30 -24 -16 -6
-30 -7 -30 -2 0 5 6 9 14 9 7 0 19 7 26 15 15 18 20 19 20 2z m-580 -11 c0 -3
-4 -8 -10 -11 -5 -3 -10 -1 -10 4 0 6 5 11 10 11 6 0 10 -2 10 -4z m574 -31
c-4 -8 -12 -15 -20 -15 -20 0 -17 18 4 23 9 3 18 5 19 6 1 0 0 -6 -3 -14z
m-125 -24 c9 -6 10 -11 2 -15 -6 -4 -11 -2 -11 4 0 6 -4 8 -10 5 -5 -3 -10 -1
-10 4 0 13 10 14 29 2z"/>
<path d="M1412 3323 c-5 -10 -7 -23 -5 -30 2 -6 -4 -24 -13 -38 -14 -22 -15
-28 -4 -35 7 -4 10 -15 7 -24 -3 -8 -2 -18 2 -20 9 -6 23 56 26 122 3 46 0 51
-13 25z"/>
<path d="M1523 3285 c0 -22 2 -30 4 -17 2 12 2 30 0 40 -3 9 -5 -1 -4 -23z"/>
<path d="M2358 3298 c-2 -13 -6 -21 -9 -18 -4 3 -16 -3 -27 -13 -12 -11 -26
-16 -31 -12 -6 3 -11 -1 -11 -9 0 -22 -23 -20 -45 4 -12 14 -22 17 -30 10 -7
-6 -15 -6 -22 1 -7 7 -12 6 -16 -5 -4 -11 -1 -13 11 -9 15 6 15 5 3 -10 -8
-10 -9 -17 -3 -17 6 0 15 7 20 15 9 17 42 11 42 -7 0 -6 -7 -7 -16 -4 -9 4
-23 1 -31 -6 -8 -7 -27 -12 -41 -13 -21 0 -32 -10 -50 -43 -14 -24 -21 -50
-17 -60 5 -13 8 -14 14 -3 6 9 11 10 15 2 4 -6 1 -14 -8 -17 -9 -3 -12 -12 -9
-21 4 -10 2 -14 -4 -10 -7 5 -9 0 -6 -12 3 -13 11 -17 25 -13 18 4 20 2 13
-27 -9 -40 1 -39 41 4 31 35 31 51 0 39 -9 -3 -16 -1 -16 5 0 6 9 11 20 11 11
0 20 5 20 11 0 5 5 7 10 4 6 -3 10 0 10 7 0 7 16 23 36 36 31 20 87 95 74 98
-8 3 32 44 43 44 6 0 2 -9 -7 -19 -10 -11 -15 -25 -10 -32 5 -9 10 -8 18 3 12
15 46 32 60 29 4 -1 13 3 20 8 6 5 28 12 49 16 26 5 35 10 26 16 -7 4 -17 5
-21 3 -4 -3 -8 2 -8 10 0 26 -74 24 -104 -2 -18 -16 -18 -16 -12 6 4 12 3 22
-3 22 -5 0 -11 -10 -13 -22z m78 -33 c-3 -9 -11 -13 -16 -10 -8 5 -7 11 1 21
14 18 24 11 15 -11z"/>
<path d="M3218 3305 c-4 -4 -4 -14 -1 -23 4 -10 2 -13 -5 -8 -7 4 -12 2 -12
-3 0 -16 20 -13 26 4 7 17 1 39 -8 30z"/>
<path d="M3500 3290 c0 -6 7 -10 15 -10 8 0 15 2 15 4 0 2 -7 6 -15 10 -8 3
-15 1 -15 -4z"/>
<path d="M3770 3293 c0 -7 5 -15 11 -19 8 -4 8 -9 0 -17 -16 -16 -13 -26 8
-24 12 1 17 6 13 17 -9 24 -32 56 -32 43z"/>
<path d="M2505 3250 c-3 -5 -1 -10 4 -10 6 0 11 5 11 10 0 6 -2 10 -4 10 -3 0
-8 -4 -11 -10z"/>
<path d="M2450 3240 c0 -5 5 -10 11 -10 5 0 7 5 4 10 -3 6 -8 10 -11 10 -2 0
-4 -4 -4 -10z"/>
<path d="M3467 3205 c7 -19 25 -15 31 6 3 11 2 11 -7 -1 -7 -10 -11 -11 -11
-2 0 6 -4 12 -10 12 -5 0 -7 -7 -3 -15z"/>
<path d="M3620 3205 l25 -15 -27 6 c-18 4 -28 2 -28 -5 0 -6 9 -11 19 -11 11
0 27 -7 36 -16 25 -26 29 -8 5 25 -12 17 -29 31 -38 31 -12 -1 -10 -5 8 -15z"/>
<path d="M3777 3189 c7 -7 15 -10 18 -7 3 3 -2 9 -12 12 -14 6 -15 5 -6 -5z"/>
<path d="M3514 3179 c-5 -8 -3 -9 6 -4 9 5 11 4 6 -4 -5 -7 -22 -10 -44 -7
-20 3 -28 3 -18 0 11 -4 28 -16 38 -28 14 -16 17 -17 12 -3 -4 11 -1 17 9 17
22 0 29 16 13 29 -11 9 -16 9 -22 0z"/>
<path d="M2020 3156 c0 -8 4 -17 9 -20 5 -4 7 3 4 14 -6 23 -13 26 -13 6z"/>
<path d="M3780 3162 c0 -15 18 -34 29 -31 7 3 3 11 -9 21 -11 10 -20 14 -20
10z"/>
<path d="M3577 3133 c4 -9 10 -10 24 -2 24 13 24 14 -5 14 -14 0 -22 -5 -19
-12z"/>
<path d="M1980 3130 c0 -5 7 -7 15 -4 8 4 15 1 15 -5 0 -6 5 -11 11 -11 8 0 8
5 -1 15 -14 17 -40 20 -40 5z"/>
<path d="M1240 3105 c0 -8 5 -15 10 -15 6 0 10 7 10 15 0 8 -4 15 -10 15 -5 0
-10 -7 -10 -15z"/>
<path d="M1955 3094 c-4 -10 -10 -32 -11 -49 -2 -16 -1 -24 2 -17 3 6 11 9 17
5 7 -3 9 -3 5 2 -4 4 0 21 8 37 9 17 11 27 6 24 -6 -3 -12 -1 -14 6 -3 7 -8 4
-13 -8z"/>
<path d="M3745 3100 c-3 -5 -2 -10 4 -10 5 0 13 5 16 10 3 6 2 10 -4 10 -5 0
-13 -4 -16 -10z"/>
<path d="M3680 3091 c0 -5 5 -13 10 -16 6 -3 10 -2 10 4 0 5 -4 13 -10 16 -5
3 -10 2 -10 -4z"/>
<path d="M3540 3072 c0 -15 5 -18 25 -14 23 4 36 22 16 22 -5 0 -16 3 -25 6
-11 4 -16 0 -16 -14z"/>
<path d="M3426 3071 c-8 -12 3 -41 15 -41 5 0 9 7 9 15 0 8 -5 15 -11 15 -5 0
-7 5 -4 10 3 6 4 10 1 10 -3 0 -7 -4 -10 -9z"/>
<path d="M3505 3070 c-3 -5 1 -10 9 -10 9 0 16 5 16 10 0 6 -4 10 -9 10 -6 0
-13 -4 -16 -10z"/>
<path d="M3626 3066 c4 -10 18 -16 36 -16 16 0 27 4 23 10 -3 5 -12 7 -20 3
-9 -3 -22 0 -30 7 -13 11 -14 10 -9 -4z"/>
<path d="M2025 3060 c4 -6 11 -8 16 -5 14 9 11 15 -7 15 -8 0 -12 -5 -9 -10z"/>
<path d="M2277 3046 c-10 -26 -9 -38 4 -31 6 4 13 -3 16 -14 7 -28 27 -22 31
10 2 16 0 20 -6 11 -7 -11 -11 -11 -19 0 -6 7 -12 20 -15 27 -3 12 -6 11 -11
-3z"/>
<path d="M1419 3037 c-16 -12 -15 -16 2 -52 10 -21 19 -50 19 -64 1 -37 28
-64 80 -80 25 -7 55 -17 68 -22 13 -5 27 -7 31 -5 4 3 39 -5 77 -18 38 -13 89
-29 114 -37 25 -7 66 -24 92 -36 27 -13 51 -23 54 -23 4 0 33 -12 64 -26 42
-19 62 -34 70 -55 7 -16 16 -29 21 -29 5 0 9 -9 9 -19 0 -40 24 -121 36 -121
7 0 14 -5 16 -12 2 -6 25 -13 50 -14 25 -1 98 -12 162 -24 64 -12 122 -20 130
-17 8 3 43 2 78 -3 157 -22 342 -41 448 -45 63 -2 115 -5 115 -6 0 -8 141 -7
151 2 9 7 14 7 14 1 0 -5 24 -8 58 -6 111 6 262 32 262 45 0 5 9 9 20 9 21 0
67 25 85 46 18 21 79 54 101 54 11 0 24 3 28 7 4 4 41 8 83 9 55 2 88 -3 119
-17 41 -17 49 -16 45 4 -1 5 8 5 20 2 12 -4 19 -3 16 1 -3 5 6 10 20 11 14 0
30 7 37 13 8 10 8 11 -3 5 -9 -5 -12 -4 -8 2 9 15 74 27 120 24 39 -3 82 22
71 40 -3 5 3 6 12 2 13 -5 16 -3 11 10 -4 11 -1 17 7 17 8 0 16 -6 19 -12 3
-10 7 -10 19 -1 11 10 19 9 37 -4 l23 -16 -7 54 c-4 30 -11 58 -16 63 -4 5
-131 8 -291 7 -300 -2 -469 6 -446 20 10 7 9 9 -4 9 -10 0 -18 -5 -18 -11 0
-6 -9 -8 -20 -5 -11 3 -29 9 -40 12 -15 4 -18 2 -14 -11 6 -15 -1 -16 -52 -15
-32 1 -61 2 -64 1 -30 -11 -87 -8 -101 5 -24 22 -151 34 -183 17 -20 -10 -29
-10 -50 1 -18 9 -41 11 -82 5 -59 -8 -99 -6 -304 11 -63 5 -148 12 -189 15
-42 3 -112 18 -162 35 -87 30 -174 39 -181 20 -3 -11 -154 25 -253 60 -44 16
-73 21 -109 16 -35 -4 -57 -1 -80 11 -73 40 -145 66 -201 73 -34 5 -64 15 -70
24 -7 9 -15 13 -18 10 -3 -4 -29 5 -56 20 -57 29 -69 31 -92 13z"/>
<path d="M3484 3005 c8 -8 17 -15 20 -15 3 0 3 7 0 15 -4 8 -13 15 -21 15 -12
0 -12 -2 1 -15z"/>
<path d="M3410 2984 c0 -8 5 -12 10 -9 6 4 8 11 5 16 -9 14 -15 11 -15 -7z"/>
<path d="M2255 2980 c-16 -7 -17 -9 -3 -9 9 -1 20 4 23 9 7 11 7 11 -20 0z"/>
<path d="M2683 2978 c-28 -14 -30 -28 -3 -23 26 5 40 14 40 26 0 11 -9 11 -37
-3z"/>
<path d="M3330 2975 c-22 -12 -17 -27 6 -18 8 3 23 -2 33 -11 12 -11 21 -13
25 -7 4 5 1 13 -5 16 -5 4 -8 12 -6 19 6 15 -26 15 -53 1z"/>
<path d="M3440 2984 c0 -10 28 -34 39 -34 18 0 12 19 -8 30 -22 11 -31 13 -31
4z"/>
<path d="M3549 2977 c7 -7 14 -8 21 -1 6 6 2 10 -12 11 -16 2 -18 -1 -9 -10z"/>
<path d="M2733 2911 c15 -13 25 -27 22 -31 -3 -5 8 -4 25 2 38 13 34 32 -6 34
-16 0 -38 5 -49 9 -14 6 -11 1 8 -14z"/>
<path d="M3635 2920 c3 -5 10 -10 16 -10 5 0 9 5 9 10 0 6 -7 10 -16 10 -8 0
-12 -4 -9 -10z"/>
<path d="M3290 2900 c-13 -8 -12 -10 3 -10 9 0 17 5 17 10 0 12 -1 12 -20 0z"/>
<path d="M2995 2880 c-3 -5 -1 -10 4 -10 6 0 11 5 11 10 0 6 -2 10 -4 10 -3 0
-8 -4 -11 -10z"/>
<path d="M4494 2485 c-9 -13 -39 -36 -67 -50 -78 -38 -103 -57 -136 -103 -58
-79 -186 -166 -281 -192 -46 -12 -185 -84 -196 -101 -10 -17 -98 -56 -152 -68
-71 -15 -145 -14 -217 4 -80 19 -126 18 -215 -4 -120 -30 -444 -128 -581 -177
-91 -32 -151 -47 -220 -54 -52 -5 -139 -14 -194 -20 -246 -24 -395 -31 -433
-19 -63 19 -124 49 -208 101 -50 30 -106 55 -145 64 -62 15 -95 13 -216 -12
-16 -3 -34 8 -67 41 -25 25 -46 51 -46 59 0 8 -38 40 -84 71 -47 32 -87 63
-90 71 -9 22 -68 27 -114 9 -23 -10 -51 -15 -63 -12 -12 3 -22 0 -26 -9 -3 -8
-9 -11 -14 -8 -5 3 -9 0 -9 -5 0 -6 11 -11 25 -11 22 0 25 -4 25 -39 0 -21 -9
-58 -20 -82 -29 -64 -26 -85 11 -93 53 -10 69 -7 78 17 5 13 16 28 24 35 26
22 31 -17 6 -44 -22 -23 -19 -44 7 -44 8 0 14 7 14 15 0 26 30 77 43 72 20 -6
14 -41 -11 -60 -42 -35 -15 -72 42 -56 22 6 34 5 46 -6 20 -18 42 -19 58 -3 9
9 12 8 12 -4 0 -13 8 -15 40 -11 36 5 40 3 40 -16 0 -14 6 -21 20 -21 13 0 20
-7 20 -20 0 -14 5 -18 16 -13 14 5 16 2 10 -20 -5 -20 -2 -27 14 -32 10 -3 28
-1 39 4 28 15 41 14 35 -4 -8 -19 13 -19 50 0 39 21 44 19 48 -12 3 -25 8 -29
53 -36 39 -7 64 -4 115 12 36 11 110 29 165 40 223 43 309 37 392 -28 26 -21
59 -41 73 -44 14 -3 50 -13 80 -22 30 -9 71 -20 90 -24 20 -4 62 -19 93 -34
32 -15 104 -38 160 -52 56 -14 118 -30 137 -35 19 -5 60 -11 90 -15 78 -8 159
-25 165 -35 5 -9 -66 -4 -98 6 -11 3 -22 1 -26 -5 -5 -7 -35 -4 -97 9 -49 10
-128 24 -174 30 -47 6 -91 16 -98 22 -7 6 -36 13 -65 15 -28 2 -53 8 -55 13
-2 5 -9 7 -16 4 -8 -3 -30 1 -49 10 -20 8 -45 12 -56 9 -11 -3 -35 6 -57 21
-21 14 -50 26 -64 27 l-25 1 25 8 c24 8 25 8 2 9 -30 1 -77 45 -69 65 4 10 1
13 -9 9 -7 -3 -14 0 -14 6 0 20 -18 12 -26 -11 l-7 -22 -19 25 c-21 25 -24 25
-46 7 -10 -8 -8 -13 5 -24 10 -7 14 -14 9 -14 -4 0 -1 -11 7 -23 15 -23 15
-24 -11 -19 -15 2 -56 15 -91 29 -60 23 -67 24 -127 12 -35 -7 -64 -15 -64
-19 0 -3 -107 -7 -237 -8 -243 -2 -320 5 -518 47 l-90 19 -12 -37 c-25 -78
-19 -95 57 -167 88 -84 156 -126 250 -154 41 -13 121 -38 177 -56 124 -40 168
-52 213 -58 81 -10 220 -39 220 -46 0 -4 22 -5 50 -2 29 3 55 0 63 -7 8 -6 17
-8 21 -4 4 4 18 9 31 10 19 3 26 -2 31 -21 3 -14 13 -31 22 -38 13 -12 14 -10
3 10 -10 19 -9 22 8 22 15 0 19 -4 14 -17 -6 -15 -4 -16 9 -5 13 10 18 10 24
1 5 -8 3 -10 -7 -4 -11 6 -12 5 -2 -5 10 -11 16 -11 31 3 20 18 42 23 42 9 0
-5 14 -7 32 -6 17 1 41 -4 52 -11 33 -21 71 -14 70 12 0 12 3 20 8 17 4 -3 8
-11 8 -19 0 -7 8 -16 18 -20 22 -10 62 -12 56 -4 -4 7 48 20 76 19 8 0 24 0
34 -1 11 0 24 8 29 17 8 13 11 14 18 3 7 -11 12 -12 28 -2 11 7 27 10 36 7 10
-4 14 -2 10 7 -2 8 2 23 10 34 16 21 49 25 207 27 50 0 85 5 82 10 -6 10 62 5
73 -5 10 -11 23 -8 21 4 -3 14 30 21 37 9 3 -5 11 -7 18 -5 45 13 67 14 67 3
0 -7 19 -21 41 -30 33 -14 38 -14 29 -3 -7 8 -19 15 -26 15 -17 0 -18 16 -2
26 6 4 14 2 16 -4 5 -16 23 -15 20 1 -2 7 8 12 22 13 14 0 32 3 40 6 46 19
189 40 291 42 41 1 76 8 91 18 25 17 78 28 220 49 55 8 85 16 82 23 -4 11 36
36 89 55 20 8 27 7 27 -2 0 -8 3 -8 9 2 5 8 14 10 21 6 9 -5 11 -4 6 3 -4 7
-1 12 9 12 9 0 14 -4 11 -9 -3 -4 5 -6 18 -4 13 3 28 15 34 28 8 17 22 26 49
30 21 3 50 13 65 21 14 8 41 14 60 14 18 0 43 6 54 13 52 30 104 57 110 57 3
0 3 -12 0 -26 -5 -19 -3 -25 6 -22 7 3 15 15 16 29 5 33 20 49 46 48 11 -1 38
1 59 4 38 6 46 0 25 -21 -18 -18 -4 -24 26 -11 30 14 61 56 61 83 0 14 15 26
52 41 29 11 64 30 78 40 27 21 84 149 87 194 1 14 15 43 31 64 17 21 26 44 23
53 -5 12 -12 10 -41 -13 -19 -15 -35 -33 -35 -40 0 -6 -14 -23 -31 -37 -23
-20 -41 -26 -77 -26 -64 0 -92 9 -91 29 0 10 2 11 6 4 7 -19 30 -16 45 6 18
26 105 91 122 91 16 0 29 27 20 42 -3 5 -13 0 -21 -12 -12 -17 -22 -21 -42
-17 -23 5 -27 2 -27 -16 1 -16 -6 -23 -23 -25 -14 -2 -21 0 -17 6 4 6 2 14 -4
17 -8 5 -7 11 1 21 16 19 4 44 -22 44 -17 0 -20 5 -17 25 5 21 2 25 -21 25
-25 1 -25 1 -7 15 11 8 14 15 8 15 -7 0 -12 7 -12 15 0 53 -99 195 -136 195
-8 0 -16 12 -20 28 -9 42 -35 122 -40 122 -2 0 -11 -11 -20 -25z m-77 -237
c-3 -8 -6 -5 -6 6 -1 11 2 17 5 13 3 -3 4 -12 1 -19z m246 -19 c16 -23 27 -43
25 -45 -7 -6 -48 8 -43 15 2 4 -3 20 -11 35 -16 32 -17 36 -6 36 4 -1 20 -19
35 -41z m-193 11 c0 -5 -5 -10 -11 -10 -5 0 -7 5 -4 10 3 6 8 10 11 10 2 0 4
-4 4 -10z m58 -2 c-2 -6 -10 -14 -16 -16 -7 -2 -10 2 -6 12 7 18 28 22 22 4z
m-178 -13 c0 -8 -4 -15 -10 -15 -5 0 -7 7 -4 15 4 8 8 15 10 15 2 0 4 -7 4
-15z m104 -79 c8 3 17 1 21 -5 3 -6 -1 -11 -10 -11 -11 0 -15 -5 -11 -15 9
-23 -7 -17 -27 10 -10 14 -15 30 -11 36 5 8 10 7 16 -4 5 -9 15 -14 22 -11z
m-24 -41 c0 -8 -9 -15 -20 -15 -11 0 -20 5 -20 11 0 6 7 9 15 5 8 -3 15 -1 15
4 0 6 2 10 5 10 3 0 5 -7 5 -15z m170 -15 c8 -15 17 -19 31 -15 23 8 25 -7 3
-26 -13 -10 -17 -10 -24 0 -4 8 -13 10 -19 6 -9 -5 -9 -10 0 -21 9 -11 8 -15
-5 -20 -9 -3 -16 -14 -17 -23 0 -12 -3 -11 -16 7 -18 25 -33 29 -33 7 0 -8 -6
-15 -14 -15 -8 0 -17 -6 -20 -12 -3 -9 -9 -8 -20 6 -8 10 -17 24 -19 30 -2 6
-7 8 -11 4 -4 -3 -2 -15 5 -26 15 -24 5 -54 -15 -46 -19 7 -29 36 -15 44 6 4
9 9 8 11 -7 8 26 45 45 52 16 7 18 4 13 -25 -6 -32 -5 -32 6 -8 6 14 18 31 25
39 12 12 13 11 10 -4 -2 -10 3 -20 10 -22 7 -3 15 7 18 26 4 17 10 28 15 25 5
-3 9 2 9 10 0 23 17 20 30 -4z m-120 -12 c0 -4 -7 -8 -15 -8 -8 0 -15 4 -15 8
0 5 7 9 15 9 8 0 15 -4 15 -9z m-300 -2 c0 -11 -19 -15 -25 -6 -3 5 1 10 9 10
9 0 16 -2 16 -4z m235 -36 c3 -5 -1 -10 -9 -10 -8 0 -18 5 -21 10 -3 6 1 10 9
10 8 0 18 -4 21 -10z m-490 -20 c-3 -5 -13 -10 -21 -10 -8 0 -14 5 -14 10 0 6
9 10 21 10 11 0 17 -4 14 -10z m769 -6 c9 -22 -9 -49 -34 -51 -17 -2 -20 2
-14 20 13 44 37 60 48 31z m-729 -4 c3 -5 1 -10 -4 -10 -6 0 -11 5 -11 10 0 6
2 10 4 10 3 0 8 -4 11 -10z m765 -10 c0 -11 -4 -20 -9 -20 -5 0 -7 9 -4 20 3
11 7 20 9 20 2 0 4 -9 4 -20z m-731 -3 c8 -10 7 -14 -4 -14 -8 0 -15 6 -15 14
0 7 2 13 4 13 2 0 9 -6 15 -13z m-32 -13 c-3 -3 -12 -4 -19 -1 -8 3 -5 6 6 6
11 1 17 -2 13 -5z m637 -68 c-13 -6 -24 -16 -24 -24 0 -11 -5 -9 -19 6 -23 28
-29 27 -34 0 -3 -18 -5 -17 -6 7 -1 23 -3 27 -11 15 -9 -13 -11 -13 -19 0 -8
11 -3 17 17 26 15 6 33 9 39 7 7 -3 20 3 29 12 15 15 18 14 34 -12 17 -27 17
-28 -6 -37z m-539 31 c6 -5 0 -7 -12 -4 -26 6 -31 -8 -6 -17 14 -6 14 -8 -3
-21 -18 -13 -17 -14 9 -9 15 2 27 0 27 -6 0 -5 -4 -10 -9 -10 -10 0 -2 -50 10
-66 5 -6 3 -18 -4 -29 -12 -15 -16 -16 -35 -4 -16 10 -20 21 -18 49 2 19 1 40
-3 45 -10 18 -10 35 1 35 6 0 5 7 -3 16 -11 14 -10 18 6 30 10 8 21 11 24 7 3
-4 11 -12 16 -16z m705 14 c0 -5 -7 -14 -15 -21 -16 -14 -18 -10 -9 14 6 17
24 22 24 7z m-906 -17 c5 -14 4 -15 -9 -4 -17 14 -19 20 -6 20 5 0 12 -7 15
-16z m56 6 c0 -5 -5 -10 -11 -10 -5 0 -7 5 -4 10 3 6 8 10 11 10 2 0 4 -4 4
-10z m780 -10 c0 -5 -5 -10 -11 -10 -5 0 -7 5 -4 10 3 6 8 10 11 10 2 0 4 -4
4 -10z m-580 -10 c0 -5 -4 -10 -9 -10 -6 0 -13 5 -16 10 -3 6 1 10 9 10 9 0
16 -4 16 -10z m45 0 c3 -5 1 -10 -4 -10 -6 0 -11 5 -11 10 0 6 2 10 4 10 3 0
8 -4 11 -10z m73 -30 c-1 -16 -4 -30 -9 -30 -4 0 -6 8 -4 18 2 9 4 23 4 30 2
26 10 10 9 -18z m214 -12 c-7 -7 -12 -8 -12 -2 0 14 12 26 19 19 2 -3 -1 -11
-7 -17z m-535 -10 c-3 -8 -6 -5 -6 6 -1 11 2 17 5 13 3 -3 4 -12 1 -19z m91 0
c15 -15 16 -32 2 -23 -5 3 -10 1 -10 -4 0 -6 -9 -3 -20 6 -11 10 -20 21 -20
25 0 12 35 9 48 -4z m-118 -18 c0 -5 -5 -10 -11 -10 -5 0 -7 5 -4 10 3 6 8 10
11 10 2 0 4 -4 4 -10z m204 -5 c3 -8 1 -15 -4 -15 -6 0 -10 7 -10 15 0 8 2 15
4 15 2 0 6 -7 10 -15z m816 -5 c-6 -11 -13 -20 -16 -20 -2 0 0 9 6 20 6 11 13
20 16 20 2 0 0 -9 -6 -20z m-3865 -9 c3 -6 -4 -15 -15 -21 -16 -8 -20 -8 -20
3 0 25 23 36 35 18z m2217 -33 c-8 -8 -9 -4 -5 13 4 13 8 18 11 10 2 -7 -1
-18 -6 -23z m1110 22 c25 0 96 -49 73 -50 -5 0 -47 -2 -93 -4 -73 -3 -84 -6
-105 -28 -34 -39 -147 -122 -250 -182 -51 -30 -102 -66 -114 -80 -13 -14 -30
-26 -39 -26 -9 0 -28 -8 -42 -18 -39 -26 -136 -65 -157 -63 -41 3 -59 10 -70
24 -7 9 -21 17 -31 17 -16 0 -14 -4 9 -23 l28 -22 -21 -23 c-24 -25 -47 -28
-85 -8 -25 13 -26 15 -8 26 17 11 17 11 -2 3 -11 -4 -85 -7 -165 -6 -121 2
-147 0 -162 -14 -10 -9 -18 -12 -18 -6 0 13 -69 42 -137 56 -32 6 -60 14 -63
18 -3 4 -14 9 -25 12 -18 4 -18 5 3 6 12 0 22 6 22 12 0 6 9 9 20 6 11 -3 20
-1 20 4 0 5 11 4 24 -1 14 -5 46 -10 73 -11 26 -1 86 -11 132 -22 78 -20 84
-20 96 -4 7 9 18 17 26 17 8 0 25 14 38 30 18 23 27 28 36 20 7 -6 25 -8 39
-4 21 5 24 9 15 20 -21 25 1 37 55 30 44 -6 83 -25 144 -69 9 -7 11 -5 6 7 -6
15 -1 17 32 15 41 -3 114 17 114 30 0 10 152 77 193 86 15 3 35 14 45 25 9 11
22 20 29 20 7 0 13 4 13 9 0 16 142 153 174 167 17 8 47 12 66 9 19 -3 47 -5
62 -5z m-972 -30 c0 -5 -2 -10 -4 -10 -3 0 -8 5 -11 10 -3 6 -1 10 4 10 6 0
11 -4 11 -10z m-120 -30 c0 -17 -2 -19 -14 -8 -14 13 -12 28 5 28 5 0 9 -9 9
-20z m1210 16 c0 -3 -4 -8 -10 -11 -5 -3 -10 -1 -10 4 0 6 5 11 10 11 6 0 10
-2 10 -4z m-656 -55 c3 -5 -1 -11 -9 -14 -9 -4 -12 -1 -8 9 6 16 10 17 17 5z
m-564 -20 c0 -10 -30 -24 -37 -17 -3 3 -2 9 2 15 8 13 35 15 35 2z m-1915 -31
c3 -5 -1 -10 -9 -10 -9 0 -16 5 -16 10 0 6 4 10 9 10 6 0 13 -4 16 -10z"/>
<path d="M3308 1403 c6 -2 18 -2 25 0 6 3 1 5 -13 5 -14 0 -19 -2 -12 -5z"/>
<path d="M3380 1380 c0 -5 7 -10 15 -10 8 0 15 5 15 10 0 6 -7 10 -15 10 -8 0
-15 -4 -15 -10z"/>
<path d="M5550 2493 c0 -4 5 -15 10 -23 8 -13 10 -13 10 2 0 9 -4 20 -10 23
-5 3 -10 3 -10 -2z"/>
<path d="M5610 2430 c0 -5 5 -10 11 -10 5 0 7 5 4 10 -3 6 -8 10 -11 10 -2 0
-4 -4 -4 -10z"/>
<path d="M5649 2373 c-13 -16 -12 -17 4 -4 16 13 21 21 13 21 -2 0 -10 -8 -17
-17z"/>
<path d="M1576 2366 c3 -9 11 -16 16 -16 13 0 5 23 -10 28 -7 2 -10 -2 -6 -12z"/>
<path d="M5626 2335 c-3 -9 -6 -22 -5 -28 0 -7 5 -1 10 12 5 13 8 26 5 28 -2
2 -6 -3 -10 -12z"/>
<path d="M1483 2327 c-3 -6 2 -16 12 -24 15 -10 16 -13 3 -13 -12 0 -15 -10
-14 -43 3 -68 14 -75 82 -48 35 13 52 49 28 58 -19 7 -18 29 3 37 19 8 9 21
-27 31 -23 7 -24 7 -10 -11 12 -15 10 -15 -10 2 -26 23 -57 27 -67 11z"/>
<path d="M2046 2331 c-4 -7 -5 -15 -2 -18 9 -9 19 4 14 18 -4 11 -6 11 -12 0z"/>
<path d="M5607 2265 c-12 -56 -27 -160 -26 -180 1 -11 10 27 20 85 10 58 17
110 15 115 -1 6 -6 -3 -9 -20z"/>
<path d="M3097 2169 c7 -7 15 -10 18 -7 3 3 -2 9 -12 12 -14 6 -15 5 -6 -5z"/>
<path d="M3540 2140 c0 -5 5 -10 10 -10 6 0 10 5 10 10 0 6 -4 10 -10 10 -5 0
-10 -4 -10 -10z"/>
<path d="M5571 2053 c-1 -6 -4 -20 -7 -30 -5 -17 -5 -17 6 0 6 10 9 23 6 30
-3 9 -5 9 -5 0z"/>
<path d="M5546 1985 c-9 -26 -7 -32 5 -12 6 10 9 21 6 23 -2 3 -7 -2 -11 -11z"/>
<path d="M850 1785 c-8 -9 -8 -15 -2 -15 12 0 26 19 19 26 -2 2 -10 -2 -17
-11z"/>
<path d="M612 1719 c-29 -21 -42 -38 -42 -55 0 -15 6 -24 16 -24 8 0 12 5 9
10 -3 6 -2 10 4 10 5 0 13 -4 16 -10 3 -5 31 -10 61 -10 41 0 54 4 54 15 0 8
5 15 10 15 6 0 10 -4 10 -9 0 -10 33 -23 65 -26 16 -2 14 2 -10 19 -16 12 -48
38 -71 59 -22 20 -50 37 -61 37 -10 0 -38 -14 -61 -31z"/>
<path d="M1157 1645 c16 -19 33 -35 38 -35 6 0 1 -8 -10 -16 -19 -15 -19 -15
10 -8 17 4 32 8 34 10 8 7 -42 54 -56 54 -7 0 -13 4 -13 9 0 5 -7 11 -15 15
-9 3 -4 -9 12 -29z"/>
<path d="M183 1631 c-3 -12 -9 -21 -13 -21 -14 0 -19 -26 -35 -177 -9 -81 -18
-150 -20 -153 -2 -4 -5 -33 -6 -66 0 -32 -7 -80 -14 -106 -9 -29 -11 -58 -6
-75 4 -16 6 -33 4 -39 -2 -7 11 -13 32 -16 19 -2 35 -1 35 3 0 4 10 5 22 1 17
-4 20 -2 15 12 -4 9 -3 14 2 11 5 -3 13 0 16 6 4 5 13 8 21 5 16 -6 59 50 45
58 -5 4 -12 2 -16 -4 -9 -15 -48 -12 -71 4 -19 15 -19 15 1 14 39 -3 73 11 71
29 -1 12 6 18 19 18 22 0 20 7 44 -185 19 -148 21 -161 32 -155 5 4 7 10 4 15
-3 4 2 59 11 120 14 90 15 126 6 179 -6 36 -16 146 -21 245 -10 178 -21 226
-53 226 -7 0 -26 13 -43 29 -42 40 -75 49 -82 22z m32 -595 c-11 -8 -24 -12
-29 -8 -5 3 -1 9 10 13 31 12 39 10 19 -5z m-81 -11 c3 -8 1 -15 -4 -15 -6 0
-10 7 -10 15 0 8 2 15 4 15 2 0 6 -7 10 -15z"/>
<path d="M1045 1610 c19 -8 73 -14 64 -6 -2 2 -22 6 -44 9 -28 5 -34 4 -20 -3z"/>
<path d="M4575 1520 c-3 -5 3 -10 14 -10 12 0 21 5 21 10 0 6 -6 10 -14 10 -8
0 -18 -4 -21 -10z"/>
<path d="M4338 1433 c6 -2 18 -2 25 0 6 3 1 5 -13 5 -14 0 -19 -2 -12 -5z"/>
<path d="M3502 1148 c16 -23 58 -44 58 -28 0 6 -9 10 -20 10 -13 0 -20 7 -20
20 0 12 -7 20 -16 20 -15 0 -15 -2 -2 -22z"/>
<path d="M1300 1100 c0 -25 16 -44 25 -30 4 7 0 19 -9 28 -13 14 -16 14 -16 2z"/>
<path d="M1435 1100 c-3 -6 1 -7 9 -4 18 7 21 14 7 14 -6 0 -13 -4 -16 -10z"/>
<path d="M4590 1030 c-12 -12 -25 -18 -30 -15 -6 4 -14 -5 -20 -19 -8 -23 -28
-32 -61 -28 -4 1 -9 -12 -13 -29 -3 -17 -10 -28 -15 -24 -5 3 -13 1 -16 -5 -5
-8 -12 -7 -23 2 -12 10 -14 10 -8 1 4 -7 2 -13 -4 -13 -6 0 -15 -10 -21 -22
-8 -20 -9 -19 -4 6 6 26 4 28 -9 17 -9 -8 -16 -18 -16 -23 0 -14 -27 -38 -42
-38 -8 0 -19 5 -25 11 -8 8 -13 8 -17 0 -4 -6 -2 -11 3 -11 6 0 11 -8 10 -17
0 -13 -2 -14 -6 -4 -5 11 -7 11 -14 0 -7 -11 -9 -9 -9 6 -1 20 -1 20 -15 1
-11 -14 -15 -16 -15 -5 -1 11 -3 10 -10 -3 -6 -9 -23 -26 -39 -37 -29 -21 -29
-21 -24 -1 3 11 9 17 14 15 9 -6 29 27 28 47 0 7 -4 3 -9 -9 -11 -26 -40 -31
-40 -7 0 8 -5 12 -11 8 -7 -4 -9 -21 -6 -40 5 -31 4 -33 -10 -19 -8 9 -12 22
-9 31 3 8 2 12 -4 9 -6 -3 -10 -15 -10 -25 0 -10 -5 -22 -11 -26 -8 -4 -9 0
-4 15 9 28 -1 27 -31 -6 -17 -19 -28 -23 -35 -16 -8 8 -21 5 -45 -9 -18 -11
-38 -16 -45 -13 -8 6 -8 9 1 15 8 5 7 9 -5 13 -9 4 -13 3 -10 -2 3 -6 -3 -14
-12 -20 -10 -6 -12 -11 -5 -11 6 0 12 -4 12 -9 0 -5 -11 -8 -23 -7 -18 1 -23
6 -19 20 4 16 2 17 -15 7 -11 -5 -23 -7 -27 -3 -4 3 -4 -1 -1 -10 5 -12 1 -14
-19 -11 -19 4 -26 1 -26 -11 0 -22 -17 -20 -30 4 -6 11 -16 17 -25 14 -8 -4
-12 -10 -9 -15 5 -9 -6 -11 -70 -13 -16 -1 -31 -7 -34 -14 -2 -7 -8 -10 -13
-6 -5 3 -9 0 -9 -7 0 -9 -4 -9 -15 1 -15 12 -35 6 -35 -11 0 -5 5 -9 11 -9 5
0 7 6 3 13 -5 8 -3 8 7 -1 12 -11 11 -15 -5 -27 -27 -21 -37 -9 -30 36 6 34 4
39 -12 38 -11 0 -14 -3 -6 -6 6 -2 12 -12 12 -21 0 -8 -3 -12 -7 -9 -3 4 -13
1 -21 -6 -10 -8 -13 -8 -9 -1 4 7 0 15 -9 18 -21 8 -24 8 -24 -5 0 -5 5 -7 10
-4 6 3 10 1 10 -5 0 -7 -6 -10 -14 -7 -7 3 -19 0 -25 -6 -13 -13 -14 -2 -2 22
7 13 5 17 -8 17 -13 0 -16 -6 -13 -23 2 -13 -1 -23 -7 -23 -6 0 -11 9 -11 20
0 21 -28 25 -41 7 -7 -9 -48 10 -61 28 -5 7 -8 6 -8 -1 0 -5 5 -15 12 -22 15
-15 6 -24 -16 -16 -9 3 -13 11 -10 16 4 6 -4 8 -17 6 -13 -2 -23 -9 -22 -16 4
-15 -9 -16 -25 0 -7 7 -12 8 -12 2 0 -5 -5 -2 -10 6 -6 10 -7 2 -3 -25 6 -35
4 -38 -9 -28 -8 7 -18 10 -21 6 -4 -3 -7 1 -7 11 0 9 -4 15 -9 11 -5 -3 -12 3
-14 12 -4 16 -5 16 -6 -1 -1 -16 -3 -17 -17 -5 -14 11 -18 10 -30 -6 -12 -17
-14 -17 -14 -2 0 10 -8 17 -18 17 -10 0 -23 5 -30 12 -14 14 -16 0 -3 -21 5
-8 16 -11 24 -8 11 4 14 1 11 -7 -3 -8 -15 -11 -29 -8 -14 2 -22 9 -18 15 3 6
1 7 -5 3 -7 -4 -12 -15 -12 -24 0 -13 -2 -14 -9 -3 -5 8 -11 9 -15 3 -8 -13
-46 -3 -46 12 -1 6 -9 1 -19 -12 l-19 -22 -10 27 c-10 26 -10 26 -11 5 -1 -19
-5 -22 -23 -17 -17 6 -20 4 -14 -10 5 -15 4 -16 -9 -5 -12 10 -15 10 -15 -1 0
-10 -3 -10 -11 -2 -12 12 -39 6 -52 -11 -5 -6 -7 -1 -4 12 5 19 2 22 -11 17
-9 -4 -26 -10 -37 -13 -11 -3 -23 -10 -26 -15 -8 -12 -31 1 -24 13 9 15 -15
22 -30 10 -12 -10 -15 -10 -15 1 0 11 -2 11 -10 -1 -9 -13 -10 -13 -10 0 0 9
-3 11 -8 5 -6 -9 -25 -11 -44 -5 -5 1 -14 3 -20 4 -7 1 -12 7 -10 14 1 7 -2
12 -8 12 -5 0 -7 8 -4 18 5 13 2 12 -13 -4 -23 -28 -54 -36 -74 -21 -20 15
-33 65 -21 80 17 22 21 57 6 57 -7 0 -29 14 -49 31 -20 18 -37 30 -39 28 -27
-35 -34 -54 -25 -65 6 -7 17 -10 25 -7 19 7 64 -34 64 -59 0 -10 -4 -18 -10
-18 -5 0 -10 5 -10 12 0 6 -3 8 -7 4 -5 -4 -1 -13 8 -19 17 -13 32 -57 19 -57
-5 0 -11 4 -15 10 -3 5 -12 7 -20 3 -11 -4 -14 0 -10 13 3 11 -1 6 -9 -11 -12
-24 -15 -26 -15 -10 -1 11 5 32 13 47 12 23 12 26 0 21 -8 -3 -14 -11 -14 -19
0 -8 -7 -14 -16 -14 -8 0 -22 -7 -31 -15 -15 -16 -38 -11 -27 6 3 6 -5 8 -20
5 -23 -4 -25 -2 -20 20 4 14 2 24 -5 24 -6 0 -8 -7 -5 -15 8 -21 -16 -19 -33
3 -8 9 -12 12 -9 5 3 -6 2 -21 -2 -34 l-9 -23 -5 22 c-4 15 -2 20 5 16 7 -4 7
-1 -1 7 -11 12 -14 12 -22 -1 -8 -12 -10 -11 -10 7 0 12 -5 25 -12 29 -8 5 -9
2 -5 -9 4 -11 1 -17 -9 -17 -9 0 -12 5 -8 12 5 7 3 8 -5 4 -7 -5 -10 -13 -8
-20 3 -7 -6 -13 -20 -14 -19 -1 -24 2 -19 13 4 10 -1 15 -15 15 -11 0 -18 4
-14 9 3 5 -8 9 -23 9 -16 -1 -35 3 -42 7 -10 6 -12 4 -7 -7 4 -12 1 -14 -14
-11 -10 3 -19 10 -19 17 0 6 -4 6 -9 -3 -9 -14 -51 -7 -51 10 0 16 -18 10 -23
-8 -4 -17 -4 -17 -11 -1 -5 11 -2 23 8 33 20 20 20 21 -3 21 -11 0 -17 -6 -14
-12 5 -15 -33 -38 -41 -25 -6 9 -40 7 -69 -4 -10 -4 -17 -3 -17 4 0 6 5 11 11
11 8 0 7 5 -2 16 -11 14 -14 13 -26 -10 -13 -25 -24 -34 -22 -18 4 23 -2 52
-12 52 -5 0 -8 -4 -5 -8 2 -4 0 -14 -5 -22 -8 -13 -10 -13 -18 -1 -5 7 -14 10
-20 7 -14 -9 -69 23 -74 43 -4 13 -5 13 -6 -1 -2 -28 -31 -22 -31 6 0 24 -13
28 -37 13 -7 -4 -26 -1 -42 8 -73 37 -55 2 30 -61 77 -57 341 -174 391 -174 8
0 18 -3 22 -7 4 -5 11 -9 14 -9 27 -6 52 -18 52 -25 0 -5 8 -9 18 -9 14 0 15
2 2 10 -20 13 4 13 28 1 9 -5 44 -15 77 -21 33 -7 70 -16 83 -21 13 -5 40 -9
62 -9 21 0 42 -4 45 -10 3 -5 25 -10 49 -10 23 0 46 -3 49 -6 3 -4 37 -8 74
-10 37 -1 122 -6 188 -9 263 -15 576 -9 805 16 179 19 363 49 435 69 48 13
163 39 222 49 24 4 51 15 61 24 10 10 30 17 45 17 14 0 57 16 96 35 38 19 74
35 80 35 6 0 20 9 31 20 11 11 32 23 47 26 37 10 213 145 255 197 56 68 75
114 28 67z m-2485 -359 c3 -5 2 -12 -3 -15 -5 -3 -9 1 -9 9 0 17 3 19 12 6z
m1600 -1 c-3 -5 -12 -7 -20 -3 -21 7 -19 13 6 13 11 0 18 -4 14 -10z m-1262
-35 c4 -8 2 -17 -3 -20 -6 -4 -10 3 -10 14 0 25 6 27 13 6z"/>
<path d="M2270 1010 c0 -5 5 -10 11 -10 5 0 7 5 4 10 -3 6 -8 10 -11 10 -2 0
-4 -4 -4 -10z"/>
<path d="M4226 965 c25 -19 40 -19 24 0 -7 8 -20 15 -28 15 -13 0 -12 -3 4
-15z"/>
<path d="M4306 957 c3 -10 9 -15 12 -12 3 3 0 11 -7 18 -10 9 -11 8 -5 -6z"/>
<path d="M4090 911 c0 -12 5 -21 10 -21 6 0 10 6 10 14 0 8 -4 18 -10 21 -5 3
-10 -3 -10 -14z"/>
<path d="M1298 873 c7 -3 16 -2 19 1 4 3 -2 6 -13 5 -11 0 -14 -3 -6 -6z"/>
<path d="M2164 848 c-3 -4 1 -8 8 -9 7 -1 26 -2 41 -3 15 -2 26 2 24 7 -4 13
-66 17 -73 5z"/>
<path d="M1561 784 c0 -11 3 -14 6 -6 3 7 2 16 -1 19 -3 4 -6 -2 -5 -13z"/>
<path d="M1630 780 c0 -6 7 -10 15 -10 8 0 15 2 15 4 0 2 -7 6 -15 10 -8 3
-15 1 -15 -4z"/>
<path d="M1765 770 c-7 -12 2 -30 16 -30 12 0 12 27 0 35 -5 3 -12 1 -16 -5z"/>
<path d="M2395 770 c3 -5 11 -10 16 -10 6 0 7 5 4 10 -3 6 -11 10 -16 10 -6 0
-7 -4 -4 -10z"/>
<path d="M1881 763 c-1 -17 16 -25 25 -12 4 7 3 9 -4 5 -5 -3 -13 0 -15 6 -4
9 -6 10 -6 1z"/>
<path d="M3740 753 c0 -4 5 -15 10 -23 8 -13 10 -13 10 2 0 9 -4 20 -10 23 -5
3 -10 3 -10 -2z"/>
<path d="M3616 732 c-3 -5 1 -9 9 -9 8 0 12 4 9 9 -3 4 -7 8 -9 8 -2 0 -6 -4
-9 -8z"/>
<path d="M3160 720 c0 -6 7 -10 15 -10 8 0 15 2 15 4 0 2 -7 6 -15 10 -8 3
-15 1 -15 -4z"/>
<path d="M3360 709 c0 -5 5 -7 10 -4 6 3 10 8 10 11 0 2 -4 4 -10 4 -5 0 -10
-5 -10 -11z"/>
<path d="M2187 684 c6 -16 19 -18 27 -5 3 5 -3 11 -13 14 -14 3 -18 1 -14 -9z"/>
<path d="M2918 653 c6 -2 18 -2 25 0 6 3 1 5 -13 5 -14 0 -19 -2 -12 -5z"/>
<path d="M0 407 c0 -13 9 -32 20 -42 23 -20 25 -12 9 34 -13 37 -29 41 -29 8z"/>
<path d="M5915 282 c-276 -14 -763 -68 -960 -107 -299 -59 -272 -57 -600 -56
-322 1 -480 -6 -814 -35 l-197 -18 -49 24 c-38 18 -51 21 -64 11 -9 -6 -34
-20 -56 -31 l-40 -20 75 5 c170 11 660 25 865 24 374 -1 605 10 770 36 83 14
222 29 310 36 88 6 297 21 465 35 168 13 349 27 403 30 l97 7 0 34 0 34 -77
-3 c-43 -2 -100 -4 -128 -6z"/>
<path d="M3098 43 c6 -2 18 -2 25 0 6 3 1 5 -13 5 -14 0 -19 -2 -12 -5z"/>
<path d="M90 20 c0 -15 7 -20 25 -20 23 0 24 2 15 20 -6 11 -17 20 -25 20 -8
0 -15 -9 -15 -20z"/>
<path d="M3013 33 c9 -2 25 -2 35 0 9 3 1 5 -18 5 -19 0 -27 -2 -17 -5z"/>
<path d="M433 20 c-35 -14 -28 -20 23 -20 32 0 44 4 42 13 -6 15 -36 19 -65 7z"/>
<path d="M2893 23 c15 -2 37 -2 50 0 12 2 0 4 -28 4 -27 0 -38 -2 -22 -4z"/>
<path d="M2695 10 l-60 -7 60 0 c33 -1 83 2 110 7 l50 7 -50 0 c-27 0 -77 -3
-110 -7z"/>
</g>
</svg>
