<?xml version="1.0" standalone="no"?>
<!DOCTYPE svg PUBLIC "-//W3C//DTD SVG 20010904//EN"
 "http://www.w3.org/TR/2001/REC-SVG-20010904/DTD/svg10.dtd">
<svg version="1.0" xmlns="http://www.w3.org/2000/svg"
 width="433.000000pt" height="576.000000pt" viewBox="0 0 433.000000 576.000000"
 preserveAspectRatio="xMidYMid meet">

<g transform="translate(0.000000,576.000000) scale(0.100000,-0.100000)"
fill="#000000" stroke="none">
<path d="M2540 5745 l-34 -12 32 -17 c35 -18 53 -51 57 -104 1 -18 7 -38 13
-44 16 -16 15 -28 -3 -28 -18 0 -19 -4 -2 -30 12 -20 5 -32 -27 -43 -5 -2 -4
-13 3 -24 7 -15 8 -24 1 -28 -6 -4 -8 -15 -5 -25 3 -11 -1 -20 -11 -24 -13 -5
-14 -9 -4 -21 7 -9 11 -16 9 -18 -2 -1 -13 -7 -23 -13 -11 -5 -20 -20 -21 -32
-1 -12 -13 -32 -28 -46 -14 -13 -23 -27 -19 -31 4 -4 -1 -13 -11 -20 -10 -7
-35 -41 -57 -76 -21 -35 -44 -63 -51 -61 -7 2 -18 -3 -24 -11 -5 -7 -22 -17
-37 -21 -39 -9 -35 -26 7 -26 34 0 40 -7 35 -39 -1 -8 4 -17 11 -21 9 -6 9
-16 1 -38 -9 -26 -7 -33 12 -51 18 -17 22 -32 22 -70 -1 -27 3 -47 7 -44 4 2
5 -7 1 -21 -5 -21 -3 -25 10 -20 9 3 16 1 16 -4 0 -6 -9 -14 -21 -17 -19 -6
-20 -7 -2 -20 10 -7 22 -11 28 -7 5 3 4 -1 -3 -10 -7 -8 -10 -23 -6 -32 3 -9
2 -16 -2 -16 -5 0 -8 -57 -8 -126 1 -104 -2 -133 -16 -163 -10 -20 -21 -44
-24 -54 -3 -10 -19 -25 -36 -35 -41 -23 -38 -32 13 -33 79 -1 79 -1 82 -127 2
-69 8 -119 15 -127 7 -8 10 -24 7 -35 -3 -11 -2 -20 2 -20 4 0 8 -19 9 -42 2
-41 7 -56 17 -47 2 3 11 40 20 83 16 85 70 197 147 303 24 33 86 121 139 194
53 74 114 153 136 176 22 23 57 74 78 114 22 39 55 83 74 97 69 54 158 150
240 257 47 61 114 144 151 185 59 67 180 237 180 253 0 4 -16 32 -36 63 -20
31 -45 76 -56 100 -10 24 -41 71 -69 104 l-50 60 -310 0 -309 0 -10 -24 c-15
-40 -46 -42 -90 -7 -32 26 -47 31 -87 30 -26 -1 -64 -7 -83 -14z"/>
<path d="M4292 5690 c0 -14 2 -19 5 -12 2 6 2 18 0 25 -3 6 -5 1 -5 -13z"/>
<path d="M4317 5653 c-3 -21 -2 -56 3 -78 7 -35 8 -30 9 38 1 84 -3 98 -12 40z"/>
<path d="M4280 5624 c0 -8 -3 -13 -7 -11 -5 3 -8 -42 -8 -99 0 -57 -3 -104 -6
-104 -11 0 -16 49 -9 88 3 21 3 47 -1 58 -6 14 -8 8 -10 -23 -1 -24 -3 -47 -4
-53 -1 -5 -3 -18 -4 -28 0 -9 -11 -23 -23 -31 -20 -12 -21 -12 -12 0 7 8 12
38 11 67 -1 48 -2 51 -14 30 -7 -14 -10 -37 -6 -57 4 -24 2 -32 -6 -27 -7 4
-9 2 -5 -7 3 -8 0 -18 -6 -22 -7 -4 -8 -20 -4 -43 6 -32 5 -35 -8 -25 -12 11
-14 4 -10 -47 5 -74 -11 -80 -32 -12 l-16 47 6 -45 c9 -73 10 -79 17 -86 10
-11 8 -44 -2 -44 -5 0 -11 10 -13 22 -2 13 -11 22 -25 24 -19 3 -21 0 -17 -31
5 -45 -11 -53 -31 -15 -8 16 -17 30 -19 30 -6 0 6 -43 14 -55 4 -5 4 -19 0
-30 -7 -18 -8 -18 -15 8 -4 15 -12 27 -17 27 -6 0 -8 -9 -5 -20 3 -11 1 -23
-4 -26 -5 -3 -7 -9 -4 -14 3 -5 1 -11 -4 -15 -9 -5 -31 53 -31 82 0 6 -5 15
-11 19 -7 4 -9 0 -5 -12 3 -11 7 -41 10 -69 2 -27 7 -62 11 -77 4 -16 5 -28 1
-28 -3 0 -12 12 -20 28 -12 21 -15 23 -16 8 0 -18 -1 -18 -18 -2 -18 15 -19
15 -17 -13 1 -17 8 -37 15 -46 7 -8 11 -18 8 -21 -7 -6 -33 34 -43 65 -5 15
-10 20 -14 12 -10 -15 -35 13 -29 31 3 7 2 22 -3 33 -6 17 -8 16 -9 -10 -2
-30 -2 -30 -10 -5 -8 24 -8 24 -9 -6 -1 -17 -8 -37 -16 -44 -8 -7 -12 -17 -8
-23 4 -6 11 -3 20 8 11 16 13 17 13 3 0 -9 -4 -19 -10 -23 -5 -3 -7 -13 -3
-23 3 -9 -4 -3 -14 13 -11 17 -23 42 -26 56 -7 29 -37 48 -37 24 0 -7 5 -17
10 -20 16 -10 12 -25 -5 -19 -8 4 -15 1 -15 -5 0 -6 7 -11 16 -11 11 0 14 -6
9 -20 -4 -11 -2 -20 4 -20 6 0 15 -10 21 -22 7 -13 -8 -3 -33 23 l-45 46 5
-32 c5 -30 3 -32 -21 -30 -14 2 -26 -1 -26 -6 0 -5 3 -9 8 -9 4 0 13 -9 19
-20 11 -17 10 -18 -5 -13 -9 3 -23 11 -31 17 -11 8 -13 1 -10 -42 2 -29 1 -52
-3 -52 -4 0 0 -19 8 -42 l15 -43 -36 35 c-19 18 -35 29 -35 24 0 -6 5 -15 12
-22 16 -16 3 -15 -31 3 l-29 14 3 -34 c2 -30 0 -33 -16 -25 -12 7 -19 5 -23
-6 -3 -9 -2 -12 5 -8 12 7 52 -32 47 -47 -2 -6 -15 -1 -30 10 -32 26 -40 26
-61 4 -24 -27 -11 -70 24 -82 29 -10 48 -36 35 -48 -7 -8 -78 28 -89 45 -12
19 -37 14 -37 -7 0 -11 -4 -23 -10 -26 -13 -8 -7 -60 11 -81 13 -17 13 -17
-11 -1 -30 21 -47 22 -30 2 7 -8 8 -15 3 -15 -5 0 -18 -7 -29 -15 -17 -14 -16
-14 13 0 39 19 43 19 43 0 0 -9 6 -12 15 -9 8 4 15 1 15 -5 0 -6 -4 -11 -10
-11 -5 0 -10 -6 -10 -12 -1 -7 -12 -26 -25 -43 -18 -21 -28 -26 -33 -18 -6 9
-17 10 -41 3 -19 -5 -37 -7 -42 -5 -4 3 -1 -8 7 -25 9 -16 21 -33 27 -36 8 -5
8 -3 0 7 -7 7 -13 19 -13 26 0 26 50 -9 59 -41 7 -27 4 -33 -16 -44 -13 -7
-23 -22 -23 -35 0 -22 -36 -54 -54 -49 -5 2 -4 -4 3 -12 11 -13 9 -15 -11 -13
-13 2 -34 9 -48 16 l-25 14 25 -28 c14 -16 19 -25 13 -21 -8 4 -13 1 -13 -8 0
-9 -4 -16 -10 -16 -5 0 -10 4 -10 10 0 6 -16 8 -37 5 -20 -2 -42 0 -49 6 -10
8 -18 7 -29 -5 -20 -19 -41 -22 -29 -3 5 7 1 4 -9 -7 -18 -19 -18 -41 -1 -41
5 0 18 -5 28 -11 15 -9 5 -11 -45 -9 -84 4 -81 3 -74 15 4 6 -1 7 -11 3 -10
-3 -15 -2 -12 3 4 5 -15 8 -44 7 -45 -2 -55 -7 -113 -58 -60 -52 -105 -104
-105 -120 0 -4 23 18 51 49 80 88 161 127 218 104 14 -5 34 -11 44 -13 10 -2
50 -37 89 -77 39 -40 75 -72 79 -70 5 1 8 -4 7 -10 -2 -7 4 -11 12 -10 8 2 12
0 8 -4 -4 -4 -3 -13 3 -20 19 -23 0 -73 -32 -90 -25 -12 -29 -20 -25 -42 3
-17 -3 -40 -17 -64 -12 -20 -37 -61 -54 -91 -30 -50 -176 -197 -196 -197 -4 0
-6 -4 -2 -9 3 -6 -7 -6 -27 0 -39 11 -98 2 -98 -15 0 -14 -55 -45 -93 -52 -16
-2 -39 -11 -52 -20 -21 -14 -24 -13 -48 16 -14 16 -28 39 -32 50 -5 16 -9 17
-19 7 -11 -10 -8 -17 15 -41 16 -16 31 -38 35 -48 3 -10 15 -18 27 -19 20 0
21 -1 3 -8 -18 -7 -18 -8 -2 -14 26 -10 38 -9 31 4 -4 6 2 5 14 -3 18 -11 27
-9 66 12 34 18 44 29 39 42 -3 10 -1 18 5 18 6 0 11 -7 11 -15 0 -11 5 -12 24
-5 13 5 27 6 30 3 3 -4 6 -1 6 5 0 7 11 12 24 12 14 0 33 11 44 25 31 39 47
31 23 -11 -12 -19 -19 -39 -16 -43 7 -12 -65 -66 -89 -68 -12 0 -47 -6 -79
-12 -31 -5 -80 -7 -108 -4 -43 5 -53 3 -74 -17 -13 -12 -28 -19 -33 -16 -12 7
-35 -18 -25 -27 3 -4 -7 -18 -23 -32 -28 -24 -28 -25 -6 -25 13 0 42 9 64 20
23 11 47 20 52 20 6 0 23 6 37 14 14 7 39 16 55 20 16 4 37 9 48 13 13 3 16 1
11 -7 -5 -8 0 -11 16 -9 13 2 29 0 34 -3 12 -7 74 28 76 43 1 5 2 13 3 18 0 5
32 38 70 75 38 36 63 66 55 66 -25 1 85 89 124 100 20 6 37 15 37 20 0 12 4
12 -50 -4 -53 -16 -77 -12 -56 10 8 8 19 14 25 14 6 0 11 4 11 8 0 5 20 29 45
54 25 25 45 44 45 41 0 -3 7 0 15 7 21 17 48 -5 39 -32 -11 -35 28 -16 61 29
16 23 41 46 55 53 28 12 220 202 220 218 0 5 20 31 45 58 24 27 45 54 45 60 0
7 21 30 46 52 43 37 52 40 123 47 42 3 131 17 198 31 67 13 127 24 132 24 6 0
20 -23 32 -50 32 -74 124 -145 217 -165 l32 -7 0 712 c0 391 -4 709 -8 706 -5
-3 -7 9 -5 27 9 83 12 227 4 222 -5 -3 -12 3 -14 12 -4 14 -5 13 -6 -4 0 -12
3 -23 9 -25 5 -1 1 -16 -11 -33 l-20 -30 4 98 c2 53 2 97 0 97 -1 0 -3 -7 -3
-16z m-60 -234 c10 0 6 -6 -10 -16 -14 -8 -17 -13 -7 -10 12 4 17 2 15 -6 -8
-22 -31 -14 -39 13 -5 22 -4 26 10 24 9 -2 23 -4 31 -5z m-23 -81 c3 -19 2
-19 -13 -5 -8 9 -12 21 -9 27 9 13 18 4 22 -22z m33 6 c0 -8 -4 -15 -8 -15 -5
0 -9 7 -9 15 0 8 4 15 9 15 4 0 8 -7 8 -15z m10 -85 c0 -5 -2 -10 -4 -10 -3 0
-8 5 -11 10 -3 6 -1 10 4 10 6 0 11 -4 11 -10z m77 -10 c1 -11 -2 -18 -8 -15
-11 7 -12 35 -1 35 4 0 8 -9 9 -20z m-157 -30 c5 8 9 7 14 -5 4 -12 1 -16 -11
-13 -9 2 -18 9 -19 16 -2 8 0 8 3 1 4 -8 7 -8 13 1z m107 -22 c-3 -7 -5 -2 -5
12 0 14 2 19 5 13 2 -7 2 -19 0 -25z m43 -10 c0 -5 -4 -8 -10 -8 -5 0 -10 10
-10 23 0 18 2 19 10 7 5 -8 10 -18 10 -22z m-70 1 c0 -6 -4 -7 -10 -4 -5 3
-10 11 -10 16 0 6 5 7 10 4 6 -3 10 -11 10 -16z m30 -47 c0 -15 -2 -15 -10 -2
-13 20 -13 33 0 25 6 -3 10 -14 10 -23z m37 -34 c-2 -13 -4 -5 -4 17 -1 22 1
32 4 23 2 -10 2 -28 0 -40z m-133 3 c-4 -17 -9 -30 -11 -27 -3 2 -2 19 2 36 9
41 17 33 9 -9z m96 -36 c0 -5 -5 -3 -10 5 -5 8 -10 20 -10 25 0 6 5 3 10 -5 5
-8 10 -19 10 -25z m-22 -50 c-1 -30 -4 -52 -6 -50 -9 9 -9 105 -1 105 5 0 8
-25 7 -55z m-111 13 c-3 -7 -5 -2 -5 12 0 14 2 19 5 13 2 -7 2 -19 0 -25z m63
2 c8 -15 8 -20 -3 -20 -7 0 -13 9 -14 20 -1 11 0 20 2 20 2 0 9 -9 15 -20z
m-370 -34 c0 -17 2 -18 10 -6 5 8 10 11 11 5 0 -5 2 -20 3 -33 3 -22 2 -22
-20 5 -26 33 -40 80 -18 62 8 -6 14 -21 14 -33z m437 12 c-3 -7 -5 -2 -5 12 0
14 2 19 5 13 2 -7 2 -19 0 -25z m-162 -18 c3 -5 1 -10 -4 -10 -6 0 -11 5 -11
10 0 6 2 10 4 10 3 0 8 -4 11 -10z m45 -11 c0 -5 -4 -9 -10 -9 -5 0 -10 7 -10
16 0 8 5 12 10 9 6 -3 10 -10 10 -16z m37 -36 c-3 -10 -5 -2 -5 17 0 19 2 27
5 18 2 -10 2 -26 0 -35z m-140 5 c3 -17 1 -19 -11 -9 -8 7 -12 19 -9 27 7 18
16 10 20 -18z m123 11 c0 -14 -5 -19 -14 -16 -8 3 -17 1 -20 -6 -2 -7 -5 -4
-5 6 -1 9 6 17 14 17 8 0 15 5 15 10 0 6 2 10 5 10 3 0 5 -9 5 -21z m-101 -36
c0 -29 -2 -33 -8 -18 -7 18 -4 55 5 55 2 0 4 -17 3 -37z m30 -63 c-5 -9 -8 8
-7 45 l1 60 7 -45 c4 -25 4 -52 -1 -60z m-91 45 c0 -5 3 -23 7 -39 8 -37 8
-37 5 -66 -1 -15 -8 1 -17 40 -8 36 -20 68 -27 72 -6 4 -2 6 10 6 11 -1 21 -7
22 -13z m42 -43 c0 -20 -4 -31 -10 -27 -5 3 -10 25 -10 48 0 31 3 38 10 27 5
-8 10 -30 10 -48z m120 46 c0 -7 -4 -19 -9 -27 -6 -9 -8 -5 -8 13 0 14 3 26 8
26 5 0 9 -6 9 -12z m-30 -23 c0 -8 -4 -15 -10 -15 -5 0 -7 7 -4 15 4 8 8 15
10 15 2 0 4 -7 4 -15z m-320 -5 c0 -5 -2 -10 -4 -10 -3 0 -8 5 -11 10 -3 6 -1
10 4 10 6 0 11 -4 11 -10z m168 -65 c14 -51 15 -80 2 -50 -8 18 -9 17 -9 -8
-1 -16 -5 -26 -11 -22 -6 4 -6 15 0 31 7 16 7 32 0 44 -12 22 -13 50 -2 50 4
0 13 -20 20 -45z m-52 10 c-3 -13 0 -28 6 -31 6 -4 8 -2 4 4 -3 6 -2 13 3 16
5 3 11 -3 14 -14 3 -11 1 -20 -4 -20 -5 0 -8 -3 -8 -7 1 -5 0 -26 -1 -48 -2
-39 -3 -39 -15 20 -8 33 -17 70 -20 83 -6 17 -3 22 9 22 12 0 15 -7 12 -25z
m-286 -19 c0 -8 3 -16 8 -18 10 -4 62 -103 62 -118 0 -19 -30 9 -41 37 -5 13
-15 23 -23 23 -16 0 -28 24 -20 44 3 8 1 17 -5 21 -16 9 -13 25 4 25 8 0 15
-6 15 -14z m265 -62 c4 -36 4 -68 1 -72 -13 -12 -27 16 -33 68 -5 44 -4 52 8
45 12 -8 12 -6 0 8 -11 15 -11 17 2 17 11 0 16 -17 22 -66z m145 62 c0 -3 -4
-8 -10 -11 -5 -3 -10 -1 -10 4 0 6 5 11 10 11 6 0 10 -2 10 -4z m-191 -93 c12
-38 15 -65 9 -78 -7 -17 -8 -17 -4 4 8 37 -15 9 -24 -31 -6 -29 -7 -27 -8 22
-1 30 -2 62 -3 70 -4 28 1 83 7 78 3 -3 13 -32 23 -65z m-49 42 c0 -8 -2 -15
-4 -15 -2 0 -6 7 -10 15 -3 8 -1 15 4 15 6 0 10 -7 10 -15z m-70 -40 c0 -8 4
-15 9 -15 5 0 12 -10 14 -22 3 -16 5 -13 6 10 1 26 5 33 19 30 10 -2 17 -12
16 -25 0 -12 3 -20 7 -17 10 6 15 -32 10 -78 -3 -33 -5 -36 -22 -27 -13 6 -19
22 -20 47 -1 26 -3 30 -6 13 -4 -22 -7 -20 -34 25 -32 55 -36 74 -14 74 8 0
15 -7 15 -15z m-149 -52 c13 -16 12 -17 -3 -4 -10 7 -18 15 -18 17 0 8 8 3 21
-13z m129 -110 l0 -48 -25 30 c-29 36 -31 47 -7 43 9 -2 16 3 15 10 -2 6 2 12
7 12 6 0 10 -21 10 -47z m23 24 c3 -8 1 -20 -4 -28 -6 -10 -9 -7 -9 14 0 29 5
35 13 14z m306 -34 c-8 -2 -22 -16 -31 -31 -21 -35 -58 -69 -58 -53 0 7 -5 9
-10 6 -6 -4 -8 -11 -5 -16 4 -5 1 -9 -4 -9 -14 0 -14 16 0 42 8 14 13 17 18 9
6 -9 12 -7 22 5 12 16 12 17 -1 9 -13 -8 -13 -7 0 9 16 20 47 35 70 34 13 0
12 -1 -1 -5z m-471 -15 c7 -7 12 -9 12 -4 0 4 7 1 15 -8 8 -8 15 -21 14 -28 0
-10 -2 -10 -6 0 -2 6 -9 12 -14 12 -6 0 -19 9 -31 20 -12 11 -17 20 -12 20 6
0 15 -5 22 -12z m112 -24 c0 -8 5 -14 12 -14 6 0 8 -3 5 -6 -9 -10 -34 13 -40
37 -4 16 -3 18 9 8 8 -6 14 -18 14 -25z m-208 -44 c-17 -20 -27 -26 -19 -12 2
4 7 15 10 25 4 10 11 16 17 12 5 -3 2 -14 -8 -25z m28 -40 c0 -5 -5 -10 -11
-10 -5 0 -7 5 -4 10 3 6 8 10 11 10 2 0 4 -4 4 -10z m403 -12 c-4 -7 -21 -28
-37 -46 -16 -18 -42 -55 -58 -82 -26 -46 -53 -70 -78 -70 -8 0 -8 6 0 20 6 11
8 26 4 33 -6 9 -4 9 8 -1 13 -10 17 -8 28 18 7 16 10 39 7 50 -5 21 16 29 28
10 12 -19 24 -10 31 25 5 28 11 35 30 35 13 0 24 5 24 10 0 6 5 10 11 10 5 0
7 -6 2 -12z m-183 -228 c0 -11 -60 -109 -71 -116 -13 -8 -2 54 13 73 5 7 7 17
3 23 -3 5 -1 10 5 10 6 0 9 4 6 9 -3 5 5 8 19 7 14 0 25 -3 25 -6z m-730 -166
c0 -8 -19 -13 -24 -6 -3 5 1 9 9 9 8 0 15 -2 15 -3z m-170 -748 c0 -2 -8 -10
-17 -17 -16 -13 -17 -12 -4 4 13 16 21 21 21 13z"/>
<path d="M4131 5414 c0 -11 3 -14 6 -6 3 7 2 16 -1 19 -3 4 -6 -2 -5 -13z"/>
<path d="M3881 5204 c0 -11 3 -14 6 -6 3 7 2 16 -1 19 -3 4 -6 -2 -5 -13z"/>
<path d="M4041 5184 c0 -11 3 -14 6 -6 3 7 2 16 -1 19 -3 4 -6 -2 -5 -13z"/>
<path d="M3882 5135 c0 -16 2 -22 5 -12 2 9 2 23 0 30 -3 6 -5 -1 -5 -18z"/>
<path d="M3985 5150 c3 -5 8 -10 11 -10 2 0 4 5 4 10 0 6 -5 10 -11 10 -5 0
-7 -4 -4 -10z"/>
<path d="M3750 5115 c-3 -5 -3 -28 0 -50 3 -22 7 -35 10 -30 3 6 3 28 0 50 -3
22 -7 36 -10 30z"/>
<path d="M3896 5080 c3 -14 11 -32 16 -40 6 -10 7 -7 2 10 -3 14 -11 32 -16
40 -6 10 -7 7 -2 -10z"/>
<path d="M3670 5015 c0 -8 4 -15 10 -15 5 0 7 7 4 15 -4 8 -8 15 -10 15 -2 0
-4 -7 -4 -15z"/>
<path d="M3240 4240 c0 -5 5 -10 10 -10 6 0 10 5 10 10 0 6 -4 10 -10 10 -5 0
-10 -4 -10 -10z"/>
<path d="M2955 4090 c-4 -6 -11 -7 -17 -4 -7 4 -8 2 -4 -5 6 -9 11 -9 22 0 14
11 18 19 10 19 -3 0 -8 -5 -11 -10z"/>
<path d="M2160 3194 c0 -8 5 -12 10 -9 6 4 8 11 5 16 -9 14 -15 11 -15 -7z"/>
<path d="M2065 3041 c4 -14 -3 -25 -25 -41 -16 -12 -30 -16 -30 -10 0 6 -5 8
-10 5 -6 -4 -8 -11 -5 -16 4 -5 -1 -9 -9 -9 -9 0 -16 -9 -16 -20 0 -11 -4 -20
-10 -20 -5 0 -10 -4 -10 -10 0 -11 59 -14 84 -4 10 4 16 18 16 40 0 43 23 55
49 25 10 -12 25 -19 33 -16 16 6 21 65 6 65 -5 0 -6 5 -2 12 4 6 3 8 -4 4 -5
-3 -12 -3 -15 1 -2 5 -2 2 -1 -4 2 -7 -3 -13 -11 -13 -8 0 -15 7 -15 15 0 8
-7 15 -16 15 -11 0 -13 -6 -9 -19z"/>
<path d="M2161 3051 c-9 -6 -10 -11 -2 -15 6 -4 11 -2 11 4 0 6 5 8 12 4 7 -4
8 -3 4 4 -8 14 -7 14 -25 3z"/>
<path d="M2067 2971 c-3 -13 -1 -18 9 -14 7 2 10 11 7 19 -7 19 -10 18 -16 -5z"/>
<path d="M1916 2853 c-2 -10 -7 -33 -11 -50 -6 -28 -4 -32 10 -27 18 7 45 54
45 79 0 21 -37 19 -44 -2z"/>
<path d="M0 2250 l1 -500 22 0 c42 1 98 18 132 41 32 22 33 24 14 31 -25 10
-14 32 12 25 27 -7 33 10 15 38 -9 13 -16 30 -16 37 0 6 -14 26 -31 44 l-31
32 23 7 c13 4 38 13 54 20 94 41 126 54 153 60 17 3 43 18 58 33 15 15 24 21
20 15 -8 -14 0 -15 26 -5 29 12 -5 67 -55 88 -23 10 -45 20 -50 22 -13 6 5
-32 21 -45 9 -7 26 -13 40 -13 13 0 20 -4 17 -10 -9 -15 -56 -12 -75 5 -15 14
-18 14 -30 0 -7 -8 -19 -15 -27 -15 -8 0 -11 -4 -8 -10 3 -5 -2 -10 -11 -10
-14 0 -15 3 -6 12 7 7 12 20 12 30 0 10 7 21 15 24 36 14 1 66 -82 123 -17 12
-35 32 -38 44 -3 12 -11 32 -17 43 -7 16 -6 29 6 51 15 30 7 53 -18 53 -6 0
-22 17 -36 38 -13 20 -39 52 -57 71 -27 28 -33 42 -33 78 0 24 -4 43 -10 43
-6 0 -10 -178 -10 -500z m111 178 c-4 -35 -6 -38 -9 -15 -3 26 3 57 10 57 2 0
1 -19 -1 -42z m39 -15 c0 -5 -4 -14 -9 -21 -6 -10 -10 -9 -14 7 -3 14 0 21 9
21 8 0 14 -3 14 -7z m170 -273 c0 -5 -2 -10 -4 -10 -3 0 -8 5 -11 10 -3 6 -1
10 4 10 6 0 11 -4 11 -10z"/>
<path d="M1059 2608 c-1 -7 -1 -21 0 -30 1 -10 -3 -18 -8 -18 -6 0 -11 -6 -11
-14 0 -8 -9 -17 -19 -21 -11 -3 -23 -15 -26 -26 -4 -10 -11 -19 -16 -19 -5 0
-9 -7 -9 -15 0 -8 -7 -15 -16 -15 -9 0 -32 -13 -51 -30 -18 -16 -38 -30 -43
-30 -6 0 -10 -7 -10 -15 0 -8 5 -15 11 -15 5 0 8 -4 5 -9 -6 -9 64 -24 73 -16
2 3 -3 5 -12 5 -15 0 -15 3 -5 23 15 25 29 37 43 36 6 0 4 -3 -2 -6 -7 -2 -13
-11 -13 -19 0 -8 6 -13 13 -11 6 1 12 -5 12 -13 0 -21 17 -31 31 -19 18 14 24
-3 9 -24 -11 -15 -14 -15 -25 -2 -7 8 -24 15 -38 15 l-26 0 22 -20 c31 -29 28
-36 -4 -11 -36 28 -42 26 -38 -9 3 -28 3 -29 -15 -12 -9 9 -16 22 -14 28 6 18
-14 26 -35 15 -21 -11 -65 -3 -56 10 3 5 8 8 12 6 4 -2 15 4 25 15 21 22 15
23 -23 3 -34 -17 -34 -19 -19 -80 7 -28 18 -47 30 -50 11 -4 16 -12 12 -21 -3
-7 -1 -14 5 -14 5 0 13 10 16 23 6 22 7 22 18 2 17 -29 30 -35 45 -20 18 19
17 23 -9 27 -13 2 -24 11 -26 21 -3 16 -1 17 17 7 28 -14 43 -4 36 23 -6 21
-6 22 9 3 18 -22 21 -66 6 -66 -5 0 -10 -8 -10 -17 1 -17 1 -17 11 0 11 19 33
23 27 5 -3 -7 4 -17 15 -23 28 -14 21 -31 -11 -27 -20 2 -23 0 -13 -7 8 -5 14
-27 15 -52 1 -34 -3 -44 -16 -47 -11 -2 -18 3 -18 12 0 9 -4 16 -10 16 -5 0
-10 -5 -10 -11 0 -5 -4 -8 -9 -5 -5 3 -7 25 -5 48 4 49 -2 62 -33 72 -18 6
-23 3 -24 -11 0 -14 -2 -15 -7 -3 -9 20 -32 24 -32 5 0 -16 -57 -62 -71 -57
-5 1 -9 -5 -9 -13 0 -8 -3 -15 -7 -15 -5 0 -24 -27 -42 -60 -19 -33 -41 -60
-48 -60 -7 0 -13 -4 -13 -10 0 -23 -22 -8 -35 24 -16 38 -56 73 -92 82 -29 8
-41 -2 -25 -18 20 -20 13 -32 -8 -13 -16 14 -22 15 -35 5 -8 -7 -12 -16 -9
-22 3 -5 -5 -6 -20 -2 -19 4 -28 2 -32 -11 -8 -19 17 -40 27 -23 4 7 13 7 28
-1 24 -14 27 -28 7 -50 -8 -9 -16 -29 -18 -46 -3 -26 0 -30 32 -36 68 -14 108
-100 50 -107 -14 -2 -34 -12 -45 -22 -11 -10 -32 -22 -47 -25 -21 -5 -28 -13
-28 -31 0 -17 -6 -24 -19 -24 -11 0 -22 -4 -25 -9 -3 -5 -14 -7 -24 -4 -10 2
-41 -11 -71 -31 -29 -20 -56 -36 -61 -36 -4 0 -19 -10 -34 -21 -19 -15 -43
-22 -79 -23 l-52 -1 -3 -59 -3 -58 27 6 c26 7 26 6 20 -31 -4 -21 -16 -50 -27
-65 -18 -26 -19 -48 -19 -537 0 -475 1 -509 18 -516 23 -9 115 -23 227 -35
137 -14 189 -21 196 -26 4 -2 69 -8 145 -14 147 -10 173 -5 154 30 -17 32 -12
78 9 90 24 12 118 14 125 2 3 -5 1 -26 -5 -47 -20 -70 -4 -90 76 -97 17 -2 44
-13 61 -25 17 -12 65 -38 107 -57 42 -19 77 -40 77 -45 0 -7 60 -11 179 -11
l179 0 4 138 c5 144 17 190 57 226 18 16 19 21 7 37 -17 25 -9 66 15 72 23 6
34 -10 30 -40 -3 -30 14 -29 64 2 22 13 48 25 57 25 31 0 65 -22 82 -53 9 -18
20 -39 25 -47 16 -25 41 -87 41 -100 0 -7 25 -64 55 -126 30 -63 55 -119 55
-124 0 -6 49 -10 123 -10 l124 0 69 74 c245 260 295 327 274 367 -15 27 27
120 79 174 21 22 57 67 79 101 54 81 142 161 193 174 43 12 59 6 107 -39 37
-36 25 -131 -22 -170 -9 -7 -13 -17 -10 -22 3 -5 -1 -10 -8 -11 -7 0 -17 -2
-23 -3 -5 -2 -26 -3 -46 -4 -58 -2 -84 -29 -85 -90 -3 -111 -3 -111 -23 -111
-11 0 -29 12 -40 26 -24 30 -101 47 -101 22 0 -8 16 -22 35 -31 40 -19 51 -49
35 -92 -10 -27 -9 -32 20 -58 17 -15 28 -32 25 -37 -3 -5 -1 -26 3 -48 5 -22
6 -46 2 -53 -4 -8 -11 -29 -15 -47 -6 -30 -5 -32 22 -32 15 0 50 9 78 19 139
54 232 79 370 101 136 21 230 58 247 96 12 25 45 33 53 11 6 -15 249 -14 298
2 18 5 73 13 122 16 91 5 151 -4 258 -39 l47 -15 0 704 0 704 -57 5 c-32 3
-105 12 -163 19 -100 11 -105 13 -108 36 -5 29 -143 200 -204 252 -70 59 -142
88 -176 71 -9 -5 -32 -12 -51 -16 l-34 -6 7 69 c7 64 5 71 -16 93 -13 12 -30
23 -37 23 -8 0 -19 9 -25 20 -6 11 -14 22 -17 25 -4 3 -10 16 -14 29 -5 17
-10 20 -15 11 -11 -17 -30 -3 -30 22 0 13 -5 18 -15 15 -9 -4 -21 8 -36 38
-19 39 -41 61 -38 38 1 -5 0 -10 -1 -13 -1 -3 -3 -21 -5 -40 -4 -52 -8 -63
-30 -84 -17 -16 -17 -18 -2 -13 10 4 17 1 17 -6 0 -7 3 -22 6 -34 5 -17 2 -23
-9 -23 -8 0 -17 -7 -21 -15 -3 -9 0 -15 9 -15 8 0 15 -5 15 -11 0 -18 -21 -50
-29 -44 -5 3 -11 -2 -15 -10 -3 -8 0 -15 6 -15 13 0 3 -61 -12 -70 -5 -3 -11
-23 -12 -43 -3 -37 -12 -48 -21 -24 -4 10 -6 10 -6 0 -1 -7 -7 -13 -15 -13 -8
0 -17 -16 -21 -37 -7 -37 -7 -37 -18 -13 l-10 25 -10 -32 c-6 -19 -17 -33 -26
-33 -14 0 -14 -2 -1 -9 8 -6 19 -7 25 -5 5 3 0 -3 -12 -14 -13 -11 -23 -27
-23 -35 0 -8 -7 -21 -17 -28 -15 -13 -16 -11 -8 16 4 17 8 46 10 65 1 20 8 46
16 58 12 20 12 24 -1 33 -13 9 -13 10 0 6 18 -5 39 20 40 46 0 10 5 17 12 15
11 -4 68 91 68 110 -1 16 -90 -95 -91 -113 0 -19 -1 -19 -8 -2 -6 17 -8 16
-19 -7 -6 -14 -18 -26 -26 -26 -7 0 -21 -11 -30 -25 -20 -30 -20 -36 -1 -29
24 10 17 -13 -11 -35 -24 -19 -24 -26 -1 -22 4 1 2 -8 -5 -18 -7 -11 -14 -19
-17 -19 -19 2 -22 -4 -10 -19 12 -14 12 -16 -2 -11 -13 5 -15 0 -12 -28 2 -19
-1 -34 -7 -34 -5 0 -10 15 -11 33 0 29 -1 30 -9 10 -5 -13 -14 -23 -21 -23 -7
0 -8 7 -4 18 16 39 23 72 15 72 -16 0 -18 44 -4 72 9 17 14 32 12 34 -2 2 -12
-12 -23 -31 -19 -37 -35 -45 -35 -20 0 8 -6 15 -12 15 -9 1 -7 5 3 13 14 10
14 14 3 25 -8 7 -14 24 -14 38 0 14 -4 22 -10 19 -5 -3 -11 4 -11 17 -1 18 -2
19 -6 5 -3 -10 0 -24 7 -32 7 -9 8 -15 0 -20 -5 -3 -10 -14 -9 -23 0 -11 2
-12 6 -4 2 6 9 9 14 6 6 -4 6 -11 -1 -19 -12 -15 7 -98 20 -90 11 7 21 -24 13
-38 -4 -7 -9 -3 -14 9 -5 11 -7 -12 -6 -56 2 -73 1 -75 -21 -73 -28 4 -62 41
-99 112 -26 51 -67 101 -82 101 -8 0 -48 -28 -79 -54 -14 -13 -18 -22 -11 -26
6 -4 -22 -24 -61 -44 -41 -22 -70 -32 -68 -24 3 7 13 15 23 17 11 2 30 10 42
18 22 15 23 16 6 28 -16 11 -115 56 -223 102 l-35 15 19 -21 c11 -11 25 -21
31 -21 14 0 45 -42 45 -60 0 -6 -13 -16 -29 -21 -20 -7 -28 -15 -24 -25 3 -8
-1 -14 -10 -14 -8 0 -18 -6 -20 -12 -4 -10 -6 -10 -6 -1 -1 7 -8 10 -17 6 -18
-7 -58 32 -49 48 4 6 -2 13 -13 16 -11 2 -23 12 -26 21 -3 10 -17 35 -30 57
-14 22 -25 52 -26 67 0 15 -4 30 -10 33 -5 3 -10 1 -10 -4 0 -6 -4 -11 -10
-11 -5 0 -10 9 -10 20 0 11 6 20 14 20 8 0 17 11 20 25 4 14 10 24 14 21 5 -3
13 3 18 12 11 18 11 50 -1 92 -5 19 -4 22 4 10 8 -11 11 4 12 60 0 41 2 90 4
108 3 28 0 33 -23 38 -15 3 -45 12 -67 19 -22 8 -70 18 -106 23 -36 6 -95 24
-130 40 l-64 30 -7 -24 c-6 -23 -44 -63 -61 -64 -6 0 -13 14 -32 67 -4 13 -12
9 -111 -54 -19 -13 -39 -23 -44 -23 -6 0 -26 -18 -47 -40 -33 -37 -39 -40 -77
-36 -23 2 -44 5 -48 5 -5 1 -8 10 -8 20 0 11 -6 21 -12 24 -10 4 -10 7 -1 18
10 10 10 16 1 28 -10 13 -10 14 2 4 8 -7 23 -13 35 -13 24 0 69 29 46 30 -8 0
-25 10 -38 22 -15 14 -23 17 -23 8 0 -7 -3 -10 -7 -7 -3 4 -12 -1 -20 -11 -13
-15 -13 -14 -2 7 9 20 8 26 -5 33 -9 5 -13 14 -10 20 5 7 -2 9 -20 4 -18 -4
-25 -3 -21 4 3 5 -1 10 -9 10 -9 0 -16 -6 -16 -14 0 -8 -5 -18 -12 -22 -7 -4
-8 -3 -4 4 4 7 1 12 -6 12 -10 0 -9 3 2 11 13 9 12 10 -2 5 -10 -3 -25 -9 -33
-12 -9 -4 -15 -1 -15 9 0 8 -7 21 -16 28 -14 11 -18 10 -33 -10 -16 -21 -19
-21 -24 -6 -10 24 -9 25 8 19 23 -9 18 23 -5 36 -15 8 -20 8 -21 -2z m174
-151 c3 -7 -3 -13 -13 -13 -10 0 -16 6 -13 13 3 7 9 13 13 13 4 0 10 -6 13
-13z m-326 -83 c-3 -3 -12 -4 -19 -1 -8 3 -5 6 6 6 11 1 17 -2 13 -5z m2417
-100 c3 -8 2 -12 -4 -9 -6 3 -10 10 -10 16 0 14 7 11 14 -7z m-1274 -4 c0 -5
-4 -10 -10 -10 -5 0 -10 5 -10 10 0 6 5 10 10 10 6 0 10 -4 10 -10z m1394 -5
c3 -9 0 -15 -9 -15 -8 0 -15 7 -15 15 0 8 4 15 9 15 5 0 11 -7 15 -15z m-2584
-24 c0 -5 -7 -12 -16 -15 -22 -9 -24 -8 -24 9 0 8 9 15 20 15 11 0 20 -4 20
-9z m155 -2 c11 -17 -1 -21 -15 -4 -8 9 -8 15 -2 15 6 0 14 -5 17 -11z m1078
-31 c-6 -12 -33 -9 -33 2 0 6 6 17 13 24 10 12 13 11 18 -3 4 -9 5 -19 2 -23z
m-75 -26 c3 -20 0 -23 -25 -20 -20 2 -29 9 -31 26 -3 20 0 23 25 20 20 -2 29
-9 31 -26z m1479 -14 c13 -14 12 -18 -5 -27 -17 -9 -19 -8 -15 9 3 11 0 26 -6
33 -6 8 -8 17 -4 21 4 4 9 1 12 -6 2 -7 10 -21 18 -30z m-2021 -35 c-14 -14
-26 -33 -26 -42 -1 -42 -53 -69 -63 -32 -3 12 0 18 7 15 7 -3 20 11 29 31 9
19 28 41 42 47 14 6 26 20 26 32 2 19 2 19 6 -2 3 -16 -4 -32 -21 -49z m2064
46 c0 -6 -4 -7 -10 -4 -5 3 -10 11 -10 16 0 6 5 7 10 4 6 -3 10 -11 10 -16z
m-1475 -29 c3 -5 2 -10 -4 -10 -5 0 -13 5 -16 10 -3 6 -2 10 4 10 5 0 13 -4
16 -10z m1462 -22 c-3 -8 -6 -5 -6 6 -1 11 2 17 5 13 3 -3 4 -12 1 -19z m-224
-66 c0 -12 7 -24 14 -27 11 -3 11 0 2 16 -16 31 -3 35 16 5 10 -14 15 -33 11
-41 -5 -13 5 -19 25 -17 4 1 5 -8 2 -18 -4 -15 -1 -19 9 -15 11 4 17 -3 22
-26 8 -40 -1 -50 -20 -25 -8 11 -14 16 -14 10 -1 -5 -7 2 -15 16 -8 14 -14 21
-15 16 0 -5 -7 -3 -15 4 -12 10 -15 10 -15 0 0 -8 -2 -11 -5 -8 -3 3 -3 13 1
22 5 13 10 14 20 5 7 -6 19 -9 26 -6 8 2 1 12 -19 23 -27 16 -53 64 -53 100 0
17 21 -14 23 -34z m-1267 7 c19 -22 19 -22 -3 -10 -13 6 -23 16 -23 21 0 15 5
12 26 -11z m1388 -19 c-6 -5 -24 21 -24 34 0 6 6 1 14 -10 8 -10 12 -21 10
-24z m-173 -61 l-9 -34 -1 35 c0 19 3 46 7 60 l7 25 3 -26 c2 -15 -1 -42 -7
-60z m-1868 13 c-3 -12 -12 -22 -20 -22 -14 0 -11 10 10 38 13 17 17 11 10
-16z m-508 -33 c-9 -29 10 -23 24 7 l12 27 30 -34 30 -34 -25 -22 c-15 -12
-23 -28 -20 -36 3 -8 0 -18 -6 -22 -7 -4 -14 2 -17 14 -7 29 -37 26 -57 -4
-14 -21 -20 -23 -36 -15 -44 24 -32 90 23 126 36 24 51 21 42 -7z m2805 21 c0
-5 -7 -10 -15 -10 -8 0 -15 5 -15 10 0 6 7 10 15 10 8 0 15 -4 15 -10z m-2663
-34 c-4 -9 -11 -16 -17 -16 -11 0 -14 33 -3 44 11 10 26 -11 20 -28z m1072
-12 c31 -34 36 -55 16 -56 -6 0 -25 20 -43 46 -39 56 -20 64 27 10z m1384 -4
c-5 -19 -23 -29 -23 -12 0 7 20 32 26 32 1 0 0 -9 -3 -20z m257 16 c0 -3 -4
-8 -10 -11 -5 -3 -10 -1 -10 4 0 6 5 11 10 11 6 0 10 -2 10 -4z m-500 -10 c0
-2 -7 -6 -15 -10 -8 -3 -15 -1 -15 4 0 6 7 10 15 10 8 0 15 -2 15 -4z m-2662
-31 c-3 -3 -9 2 -12 12 -6 14 -5 15 5 6 7 -7 10 -15 7 -18z m2802 -48 c-10 -9
-11 -9 -6 1 4 7 1 12 -8 12 -9 0 -16 4 -16 9 0 5 -3 18 -7 28 -5 12 2 9 21
-10 23 -23 26 -31 16 -40z m320 20 c0 -5 -4 -5 -10 -2 -5 3 -10 14 -10 23 0
15 2 15 10 2 5 -8 10 -19 10 -23z m-2680 9 c0 -8 -4 -18 -10 -21 -5 -3 -10 3
-10 14 0 12 5 21 10 21 6 0 10 -6 10 -14z m2480 -16 c5 -21 7 -22 13 -7 7 19
32 23 42 7 4 -6 2 -16 -4 -23 -5 -7 -6 -19 -2 -26 6 -9 11 -10 15 -2 11 17 26
13 26 -6 1 -17 1 -17 14 0 7 9 16 17 20 17 9 0 7 -68 -3 -74 -18 -11 -19 -60
-3 -73 15 -12 13 -12 -13 -7 -49 11 -75 23 -75 34 0 6 -4 9 -9 5 -5 -3 -7 -21
-4 -40 5 -34 -9 -50 -20 -22 -4 9 -6 9 -6 -1 -1 -8 8 -16 19 -19 16 -4 17 -7
5 -19 -8 -9 -28 -12 -55 -10 -37 4 -70 16 -42 16 17 0 72 57 72 75 0 15 -26
20 -54 9 -11 -4 -13 -14 -9 -35 5 -29 -9 -40 -23 -18 -11 19 -10 101 1 113 7
6 10 17 7 24 -2 6 1 12 7 12 13 0 14 20 2 39 -8 12 -12 13 -26 1 -15 -12 -15
-11 -4 14 7 14 17 25 23 23 6 -2 17 3 25 10 21 21 54 12 61 -17z m-250 -20 c0
-5 -4 -10 -10 -10 -5 0 -10 5 -10 10 0 6 5 10 10 10 6 0 10 -4 10 -10z m434
-21 c-3 -5 -10 -7 -15 -3 -5 3 -7 10 -3 15 3 5 10 7 15 3 5 -3 7 -10 3 -15z
m-2229 -9 c11 -9 11 -15 -1 -38 -16 -32 -18 -49 -4 -54 6 -2 5 -9 -1 -18 -8
-11 -12 -12 -16 -2 -8 20 -28 14 -66 -23 -29 -28 -40 -33 -58 -26 -13 4 -28
16 -34 25 -8 13 -5 21 15 36 14 11 32 20 40 20 8 0 24 12 34 27 15 21 17 29 8
44 -7 10 -12 22 -12 25 0 10 79 -3 95 -16z m2425 1 c0 -5 -7 -12 -16 -15 -14
-5 -15 -4 -4 9 14 17 20 19 20 6z m-1769 -27 c10 -9 19 -30 19 -46 0 -17 19
-72 42 -124 42 -98 44 -122 5 -87 -24 22 -77 36 -77 21 0 -5 -10 -8 -22 -6
-15 2 -34 -8 -55 -27 -17 -16 -57 -52 -88 -80 -31 -27 -66 -60 -77 -72 -31
-33 -55 -29 -63 10 -4 17 -13 35 -19 39 -17 11 -12 133 7 207 20 72 51 119
106 159 35 25 45 27 120 26 63 -2 87 -6 102 -20z m1689 6 c0 -4 10 -11 22 -17
12 -5 17 -12 12 -16 -6 -3 -22 5 -37 17 -30 26 -35 38 -12 30 8 -4 15 -9 15
-14z m-80 0 c0 -5 -4 -10 -10 -10 -5 0 -10 5 -10 10 0 6 5 10 10 10 6 0 10 -4
10 -10z m-1310 -7 c0 -8 -47 -33 -62 -33 -4 0 -5 6 -2 14 5 13 15 17 57 25 4
0 7 -2 7 -6z m220 -3 c0 -5 -2 -10 -4 -10 -2 0 -12 -3 -22 -7 -16 -6 -17 -5
-4 10 17 19 30 22 30 7z m-1780 -10 c0 -5 -5 -10 -11 -10 -5 0 -7 5 -4 10 3 6
8 10 11 10 2 0 4 -4 4 -10z m3040 -11 c0 -6 -4 -7 -10 -4 -5 3 -10 11 -10 16
0 6 5 7 10 4 6 -3 10 -11 10 -16z m-1320 -45 c0 -8 -4 -12 -10 -9 -5 3 -10 10
-10 16 0 5 5 9 10 9 6 0 10 -7 10 -16z m380 2 c0 -3 -4 -8 -10 -11 -5 -3 -10
-1 -10 4 0 6 5 11 10 11 6 0 10 -2 10 -4z m-1992 -33 c-4 -22 -22 -20 -26 1
-2 10 3 16 13 16 10 0 15 -7 13 -17z m2832 7 c0 -5 -4 -10 -10 -10 -5 0 -10 5
-10 10 0 6 5 10 10 10 6 0 10 -4 10 -10z m-2984 -26 c-3 -9 -6 -23 -7 -32 0
-14 -2 -13 -9 3 -13 31 -11 45 6 45 11 0 14 -5 10 -16z m448 7 c3 -5 1 -23 -6
-42 -10 -30 -9 -34 15 -55 15 -13 27 -32 27 -44 0 -12 16 -37 35 -57 39 -41
41 -49 20 -81 -12 -16 -13 -27 -6 -41 12 -22 64 -38 69 -22 5 16 34 13 60 -5
19 -13 22 -22 16 -47 -3 -18 -12 -39 -19 -47 -11 -12 -11 -19 0 -40 30 -53 10
-79 -31 -42 -25 24 -61 33 -69 18 -3 -8 -7 -7 -11 3 -5 10 -8 11 -14 1 -6 -10
-12 -9 -29 2 -11 8 -18 17 -15 20 3 3 1 9 -5 13 -6 3 -11 2 -11 -4 0 -5 -8 -8
-17 -6 -10 2 -22 4 -26 4 -5 1 -5 6 -1 13 4 6 3 8 -4 4 -6 -3 -25 7 -43 24
-19 16 -39 30 -46 30 -7 0 -38 12 -69 27 -62 29 -84 63 -84 127 0 28 -6 40
-27 53 -15 10 -38 28 -52 41 -22 20 -23 24 -8 40 11 12 13 22 6 35 -12 21 -2
40 17 33 7 -3 50 1 96 8 75 12 86 12 125 -5 l42 -18 20 35 c20 34 35 42 45 25z
m2316 -26 c0 -9 6 -12 15 -9 22 9 32 -26 11 -38 -9 -5 -14 -13 -11 -19 4 -5
-6 -14 -20 -19 -36 -14 -42 -13 -49 7 -7 17 12 36 27 26 4 -3 5 11 2 31 -6 29
-4 36 9 36 9 0 16 -7 16 -15z m503 -6 c14 -6 30 -28 39 -52 16 -45 14 -67 -7
-67 -11 0 -12 -7 -4 -32 5 -18 9 -41 9 -52 0 -18 -1 -18 -18 -3 -23 21 -97 47
-131 47 l-26 -1 28 -15 c28 -15 36 -41 15 -49 -7 -3 -44 0 -83 5 -38 6 -78 11
-87 12 -12 2 -14 6 -7 20 15 28 48 41 93 35 22 -3 34 -3 26 0 -8 3 -18 11 -22
17 -4 6 -15 11 -25 11 -10 0 -18 7 -18 15 0 8 7 14 16 14 11 -1 15 5 12 16 -5
18 41 68 75 82 26 10 89 9 115 -3z m-3603 -84 c0 -26 -3 -33 -15 -29 -16 6
-19 22 -9 48 11 28 24 17 24 -19z m2820 25 c13 -8 13 -10 -2 -10 -9 0 -20 5
-23 10 -8 13 5 13 25 0z m156 -38 c-4 -3 -12 0 -19 7 -9 9 -9 14 3 21 11 7 16
5 18 -6 2 -9 1 -18 -2 -22z m48 12 c4 -11 1 -14 -11 -12 -9 2 -18 9 -21 16 -6
18 25 15 32 -4z m46 -40 c0 -9 -5 -14 -12 -12 -18 6 -21 28 -4 28 9 0 16 -7
16 -16z m-1290 -14 c0 -5 -5 -10 -11 -10 -5 0 -7 5 -4 10 3 6 8 10 11 10 2 0
4 -4 4 -10z m-1760 -15 c18 -22 3 -55 -25 -55 -13 0 -28 -8 -34 -17 -5 -10
-13 -14 -17 -10 -4 4 -2 13 4 19 7 7 12 24 12 38 0 15 3 30 7 33 11 12 40 8
53 -8z m1979 -20 c32 -8 69 -15 81 -15 31 0 170 -70 200 -100 14 -14 45 -39
69 -55 25 -17 44 -34 43 -40 -1 -6 -25 -9 -55 -7 l-52 3 55 -33 c89 -54 148
-79 198 -87 42 -5 47 -9 47 -31 0 -20 -6 -26 -28 -28 -16 -2 -36 0 -45 4 -10
4 -46 8 -82 10 -143 5 -171 11 -205 44 -17 16 -35 30 -41 30 -5 0 -21 12 -35
28 -24 25 -78 46 -171 68 -16 3 -28 10 -28 15 0 17 40 48 55 43 9 -4 15 0 15
10 0 10 -9 15 -27 15 -66 1 -77 3 -95 12 -12 7 -26 6 -43 -4 l-26 -13 21 -19
c29 -26 25 -49 -14 -79 -32 -24 -38 -25 -116 -19 -66 5 -84 10 -95 27 -36 51
0 160 68 206 33 22 49 25 142 28 70 2 125 -3 164 -13z m968 -25 c4 -12 3 -13
-5 -1 -6 8 -19 12 -31 8 -12 -3 -19 -1 -15 5 9 14 47 5 51 -12z m-3134 -31
c29 -8 37 -15 37 -33 0 -35 -23 -48 -77 -44 -34 2 -48 -1 -48 -10 0 -7 -5 -16
-11 -20 -5 -4 -17 -17 -25 -29 -11 -16 -19 -19 -29 -12 -13 8 -11 12 7 27 21
16 22 19 8 46 -24 45 -19 64 18 75 44 13 75 13 120 0z m3229 -15 c7 -15 24
-23 61 -30 46 -8 52 -12 55 -36 5 -42 -26 -53 -102 -38 -33 7 -68 18 -76 25
-8 7 -26 16 -40 19 -52 15 -80 29 -80 41 0 22 61 40 134 40 30 0 41 -5 48 -21z
m-1792 -48 c-19 -25 -39 -46 -47 -46 -18 0 -17 7 9 49 27 45 49 64 61 52 6 -6
-3 -27 -23 -55z m2040 54 c0 -5 -4 -10 -10 -10 -5 0 -10 5 -10 10 0 6 5 10 10
10 6 0 10 -4 10 -10z m470 0 c0 -5 -4 -10 -10 -10 -5 0 -10 5 -10 10 0 6 5 10
10 10 6 0 10 -4 10 -10z m-338 -42 c9 -7 19 -23 22 -34 5 -18 2 -23 -21 -27
-58 -11 -65 -14 -73 -27 -4 -7 -17 -11 -29 -7 -12 3 -21 1 -21 -5 0 -5 -5 -6
-11 -2 -8 4 -8 9 0 17 15 15 14 27 -1 27 -12 1 -68 44 -68 53 0 2 24 3 53 2
28 -1 63 2 77 6 38 11 55 10 72 -3z m-3392 -23 c7 -8 19 -15 26 -15 8 0 14 -4
14 -10 0 -21 -64 0 -73 24 -8 21 16 21 33 1z m-406 -105 c-8 -42 -27 -65 -48
-57 -32 12 -17 53 17 48 11 -2 9 13 -4 26 -7 7 -9 19 -6 28 6 13 10 13 27 3
16 -10 19 -19 14 -48z m3606 -11 c0 -11 -4 -17 -10 -14 -5 3 -10 15 -10 26 0
11 5 17 10 14 6 -3 10 -15 10 -26z m222 -12 c22 -23 26 -33 18 -48 -12 -22
-40 -15 -40 11 0 23 -28 46 -52 42 -17 -3 -25 17 -12 31 13 13 59 -7 86 -36z
m-2091 12 c40 -12 72 -30 86 -47 23 -27 30 -66 14 -76 -16 -10 -102 26 -119
51 -9 14 -30 40 -46 59 -34 41 -25 42 65 13z m1237 -32 c2 -10 -3 -17 -12 -17
-18 0 -29 16 -21 31 9 14 29 6 33 -14z m-1518 -12 c6 -8 9 -23 5 -36 -6 -18
-9 -19 -20 -8 -21 23 -29 59 -12 59 8 0 20 -7 27 -15z m2610 -95 c0 -5 -2 -10
-4 -10 -3 0 -8 5 -11 10 -3 6 -1 10 4 10 6 0 11 -4 11 -10z m-1525 -61 c-8
-12 -35 -12 -35 0 0 11 22 20 33 14 4 -2 5 -9 2 -14z m-827 -26 c13 -20 21
-42 18 -49 -3 -8 -26 -24 -51 -36 -35 -17 -48 -19 -57 -10 -9 9 -9 15 0 24 7
7 12 25 12 42 0 30 24 66 44 66 6 -1 21 -17 34 -37z m176 -92 c11 -17 -6 -41
-28 -41 -30 0 -37 9 -25 31 10 20 44 26 53 10z m-794 -16 c12 -14 6 -35 -10
-35 -11 0 -40 29 -40 41 0 14 36 11 50 -6z m648 -56 c2 -11 -6 -19 -22 -23
-15 -4 -26 -13 -26 -21 0 -8 -6 -15 -12 -16 -10 0 -10 -2 0 -6 6 -2 10 -9 6
-14 -3 -5 4 -9 15 -9 18 0 19 -3 9 -25 -10 -22 -17 -25 -57 -24 -34 1 -40 3
-22 8 35 10 51 39 29 55 -16 12 -16 14 0 37 32 46 47 60 62 57 8 -2 16 -11 18
-19z m-89 -8 c9 -16 7 -20 -14 -25 -14 -4 -24 -10 -23 -14 2 -11 -13 -42 -21
-42 -3 0 -6 15 -6 33 0 57 43 89 64 48z m161 -6 c0 -18 -36 -20 -46 -3 -5 8
-2 9 9 5 9 -3 19 -2 22 3 9 14 15 12 15 -5z m122 -80 c-6 -34 -48 -48 -58 -20
-11 27 4 47 33 43 22 -2 27 -8 25 -23z m-346 -37 c4 -13 7 -29 6 -35 -2 -9 10
-13 33 -13 36 0 46 -15 23 -38 -15 -15 -68 -16 -68 -1 0 6 -8 8 -18 5 -28 -9
-47 50 -27 81 20 29 41 29 51 1z m262 -74 c16 -28 2 -53 -36 -63 -29 -9 -37
-7 -48 7 -14 20 -8 36 12 28 9 -3 14 1 14 13 0 10 3 21 7 24 12 13 42 7 51 -9z
m1247 -8 c63 -4 124 -25 135 -47 9 -17 7 -21 -17 -32 -15 -7 -39 -20 -53 -29
-23 -16 -30 -16 -70 -4 l-45 14 -3 -57 c-4 -71 -10 -91 -27 -91 -20 0 -35 32
-35 72 0 22 -7 37 -20 46 -43 26 -8 61 47 47 24 -6 25 -5 13 10 -8 10 -15 22
-16 29 -1 6 -3 16 -4 21 -7 29 1 37 28 30 15 -4 45 -8 67 -9z m406 -12 l21
-22 -21 -11 c-25 -14 -28 -58 -6 -87 8 -11 15 -14 15 -6 0 6 7 12 15 12 9 0
20 11 25 24 12 32 28 41 45 26 23 -19 18 -40 -9 -40 -35 0 -57 -59 -30 -81 18
-15 18 -39 0 -39 -7 0 -34 -3 -59 -6 -44 -6 -47 -5 -97 42 -58 54 -74 85 -84
163 l-7 53 85 -3 c71 -3 89 -8 107 -25z m-1553 -12 c2 -12 -1 -22 -7 -22 -6 0
-10 -4 -8 -9 1 -5 -2 -8 -7 -7 -6 0 -11 16 -13 34 -3 28 -1 33 14 30 10 -2 19
-13 21 -26z m-482 -29 c11 -15 16 -16 33 -5 32 19 43 15 39 -15 -4 -39 -35
-40 -75 -4 -18 16 -33 31 -33 35 0 13 23 5 36 -11z m29 -94 c-8 -12 -35 -12
-35 0 0 11 22 20 33 14 4 -2 5 -9 2 -14z m-135 -18 c0 -5 -7 -11 -15 -15 -15
-5 -20 5 -8 17 9 10 23 9 23 -2z m530 -121 c0 -20 -36 -43 -52 -34 -18 11 13
44 50 53 1 1 2 -8 2 -19z m-1406 -65 c26 -26 9 -48 -33 -40 -20 3 -55 8 -79
12 -76 9 -34 39 60 42 21 0 43 -6 52 -14z"/>
<path d="M3425 1801 c-3 -5 -1 -12 4 -15 5 -3 11 1 15 9 6 16 -9 21 -19 6z"/>
<path d="M3490 1765 c0 -8 4 -15 10 -15 5 0 7 7 4 15 -4 8 -8 15 -10 15 -2 0
-4 -7 -4 -15z"/>
<path d="M2600 1303 c1 -13 69 -43 95 -43 40 0 29 17 -22 34 -51 17 -73 20
-73 9z"/>
<path d="M3265 2431 c-3 -6 -12 -8 -20 -4 -19 7 -73 -14 -104 -41 -18 -16 -23
-17 -19 -5 5 12 1 15 -18 11 -13 -2 -24 -9 -24 -14 0 -6 8 -7 18 -3 13 5 14 3
6 -5 -8 -8 -18 -9 -30 -2 -21 11 -44 6 -44 -10 0 -6 7 -8 15 -4 13 4 14 2 5
-14 -6 -11 -15 -20 -20 -20 -6 0 -10 -6 -10 -13 0 -8 -9 -22 -19 -31 -21 -19
-33 -53 -21 -61 4 -2 15 4 25 15 10 11 23 20 29 20 7 0 7 -3 1 -8 -5 -4 -11
-16 -12 -27 -1 -19 -1 -19 17 2 9 12 20 20 23 17 3 -3 3 3 0 14 -3 12 -11 18
-18 15 -10 -3 -13 3 -12 23 2 19 12 33 35 46 17 9 32 15 32 11 0 -4 13 6 29
21 16 16 34 25 40 22 6 -4 11 -2 11 3 0 6 5 11 11 11 6 0 8 -9 3 -22 -6 -22
-6 -22 19 -5 30 19 41 22 32 7 -3 -5 -1 -10 5 -10 7 0 9 7 6 16 -4 11 1 18 14
21 11 3 20 9 20 14 0 13 -18 20 -25 10z m-40 -21 c3 -5 1 -10 -4 -10 -6 0 -11
5 -11 10 0 6 2 10 4 10 3 0 8 -4 11 -10z"/>
<path d="M2981 2341 c-10 -6 -10 -10 -1 -16 9 -6 9 -9 0 -15 -8 -5 -7 -9 5
-13 9 -4 14 -3 10 2 -3 5 1 16 9 24 22 22 5 35 -23 18z"/>
<path d="M2924 2312 c-11 -9 -28 -37 -38 -62 -10 -25 -22 -53 -27 -62 -10 -21
1 -24 19 -6 9 9 12 9 12 -1 0 -7 4 -10 10 -6 5 3 7 12 4 20 -3 8 5 21 20 30
14 10 26 26 26 37 0 10 5 16 10 13 6 -3 10 -1 10 4 0 20 -19 11 -41 -19 -12
-16 -29 -32 -37 -35 -12 -4 -11 -1 3 15 10 11 23 30 30 43 6 12 16 21 22 20 5
-1 10 5 10 13 0 18 -7 18 -33 -4z"/>
<path d="M3151 2247 c-13 -21 -12 -21 5 -5 10 10 16 20 13 22 -3 3 -11 -5 -18
-17z"/>
<path d="M3225 2220 c-3 -5 -1 -10 4 -10 6 0 11 5 11 10 0 6 -2 10 -4 10 -3 0
-8 -4 -11 -10z"/>
<path d="M2926 2170 c-33 -37 -64 -58 -37 -26 18 22 -1 26 -27 6 -21 -17 -30
-59 -15 -73 3 -4 12 1 19 11 12 15 12 14 7 -7 -4 -17 -3 -22 5 -17 7 4 12 13
12 21 0 8 9 20 21 28 15 11 17 16 7 20 -10 4 -9 6 2 6 14 1 55 59 47 68 -2 2
-21 -15 -41 -37z"/>
<path d="M3200 2202 c0 -6 5 -12 11 -14 9 -3 9 -10 0 -28 -11 -24 -11 -24 3
-6 20 25 20 30 1 46 -9 8 -15 8 -15 2z"/>
<path d="M3076 2163 c-6 -14 -5 -15 5 -6 7 7 10 15 7 18 -3 3 -9 -2 -12 -12z"/>
<path d="M2901 2074 c0 -11 3 -14 6 -6 3 7 2 16 -1 19 -3 4 -6 -2 -5 -13z"/>
<path d="M2996 2049 c-16 -16 -26 -33 -22 -37 4 -4 16 3 25 15 12 15 22 18 28
12 7 -7 9 -2 6 15 -3 14 -6 25 -7 25 0 -1 -14 -15 -30 -30z"/>
<path d="M3198 2040 c2 -16 6 -30 8 -30 2 0 4 14 4 30 0 17 -4 30 -8 30 -5 0
-7 -13 -4 -30z"/>
<path d="M2877 1996 c-4 -10 -5 -21 -2 -24 9 -9 17 6 13 25 -3 17 -4 17 -11
-1z"/>
<path d="M3170 1990 c-6 -11 -8 -20 -6 -20 3 0 10 9 16 20 6 11 8 20 6 20 -3
0 -10 -9 -16 -20z"/>
<path d="M2980 1928 c0 -21 4 -38 9 -38 16 0 19 26 5 51 -13 24 -13 23 -14
-13z"/>
<path d="M335 1878 c-4 -11 -18 -18 -34 -18 -15 0 -36 -7 -47 -15 -17 -13 -15
-14 31 -8 58 7 69 14 62 39 -4 18 -4 18 -12 2z"/>
<path d="M2962 1858 c-7 -7 -12 -18 -12 -25 0 -11 6 -9 24 4 13 10 22 21 19
26 -6 10 -17 9 -31 -5z"/>
</g>
</svg>
